<?xml version="1.0" encoding="UTF-8" standalone="no"?>
<svg width="292px" height="50px" viewBox="0 0 292 50" version="1.1" xmlns="http://www.w3.org/2000/svg" xmlns:xlink="http://www.w3.org/1999/xlink">
    <!-- Generator: sketchtool 3.7.2 (28276) - http://www.bohemiancoding.com/sketch -->
    <title>99381C91-AB5F-4B44-A825-5D00F7B093C1</title>
    <desc>Created with sketchtool.</desc>
    <defs></defs>
    <g id="Tasma" stroke="none" stroke-width="1" fill="none" fill-rule="evenodd">
        <g id="private-Deskcop" transform="translate(-591.000000, -728.000000)" fill="#FF5740">
            <g id="Group-5" transform="translate(275.000000, 260.000000)">
                <g id="Group-3">
                    <g id="Проект---Drawing-11" transform="translate(461.219859, 482.355755) rotate(7.000000) translate(-461.219859, -482.355755) translate(313.219859, 461.855755)">
                        <g id="Слой_2" transform="translate(-0.000000, 0.000000)">
                            <path d="M292.218607,11.2665753 C291.213759,9.94053851 290.115971,8.68772039 288.93355,7.51760274 L286.992252,5.69506849 C285.956882,4.75900995 284.835357,3.92311596 283.642672,3.19856164 C281.70979,2.22972603 279.684332,1.79445205 277.566298,1.45746575 C275.204198,1.07554795 272.814046,0.850890411 270.432309,0.654315068 C268.050573,0.457739726 265.738969,0.320136986 263.385286,0.266780822 L251.936679,0.00561643836 C251.20729,-0.0112328767 250.475095,0.0196575342 249.745706,0.0336986301 L243.57395,0.143219178 C240.667615,0.196575342 237.750057,0.168493151 234.846527,0.303287671 L214.412405,1.24684932 C212.328034,1.34232877 210.246469,1.52767123 208.164905,1.65684932 L194.912462,2.54143836 C189.677691,2.89246575 184.454141,3.3530137 179.227786,3.81075342 L166.466279,4.9340411 C164.769046,5.08287671 163.074618,5.23171233 161.380191,5.42267123 L138.283798,8.04554795 C132.605782,8.68863014 126.944599,9.49458904 121.280611,10.2331507 C109.183969,11.8076256 97.085458,13.3652511 84.9850763,14.9060274 C72.3610305,16.5263699 59.7117366,17.975411 47.0708588,19.4609589 C41.5134733,20.1124658 35.9504771,20.7443151 30.4099237,21.5278082 C24.1371756,22.4123973 17.8560115,23.2745205 11.6141221,24.3893836 C7.83812977,25.0661644 4.07896947,25.7626027 0.347862595,26.6696575 C0.157574507,27.32293 0.327311863,28.0282224 0.793912214,28.5230822 C1.08207341,29.123633 1.44804931,29.6835458 1.8823855,30.1883562 C3.41157452,32.2347463 5.16458707,34.1035289 7.10874046,35.759863 C8.54507634,37.0095205 10.2956107,38.5961644 12.2509351,38.9584247 C12.4968466,38.9789611 12.7442684,38.972369 12.9887405,38.9387671 C13.4884073,38.8952421 13.9849458,38.8211539 14.4755725,38.7169178 C15.0703053,38.5933562 15.6482061,38.4360959 16.2457443,38.3406164 L25.5622901,37.579589 C26.6086832,37.4953425 27.6747137,37.5093836 28.7239122,37.4784932 L35.369771,37.2734932 C36.4105534,37.2397945 37.4681679,37.1471233 38.5089504,37.1808219 L42.9975,37.3156164 L49.5535878,37.5121918 C50.3951908,37.5374658 51.2367939,37.5458904 52.0587595,37.6020548 C56.8278435,37.9278082 61.5829008,38.2282877 66.337958,38.5989726 C68.910458,38.7983562 71.482958,38.9949315 74.055458,39.1999315 L78.1540649,39.5284932 C79.6296756,39.6464384 81.1698092,39.6857534 82.6145611,40.0508219 C83.1813321,40.4122628 83.7862856,40.7098698 84.4183969,40.9382192 L85.1000954,40.8652055 C85.2903835,40.211933 85.1206462,39.5066406 84.6540458,39.0117808 C83.9305129,37.8176844 83.0954558,36.6949845 82.1600954,35.6587671 C80.4832998,33.733871 78.6187945,31.9812833 76.5942939,30.4270548 C76.1454389,30.0788356 75.6937786,29.7530822 75.2280916,29.455411 C79.1686641,28.9836301 83.1092366,28.508105 87.0498092,28.0288356 C98.9987023,26.5704338 110.94105,25.0596119 122.876851,23.4963699 L144.758531,20.6488356 C150.015744,19.9636301 155.286985,19.3907534 160.55542,18.7897945 L173.934103,17.2705479 L194.679618,15.4536301 C196.674218,15.2795205 198.668817,15.0660959 200.666221,14.9341096 L210.33624,14.2882192 C216.123664,13.9034932 221.902672,13.4597945 227.695706,13.1930137 L240.639561,12.594863 C242.662214,12.5021918 244.682061,12.3870548 246.707519,12.3505479 L257.620305,12.1539726 C259.598073,12.1174658 261.573034,12.0556849 263.550802,12.1006164 L274.278435,12.3449315 C276.326336,12.3926712 278.374237,12.530274 280.419332,12.6819178 C282.464427,12.8335616 284.456221,13.0441781 286.467653,13.299726 C288.353224,13.4979496 290.217611,13.8625638 292.039065,14.3893151 C292.514836,14.7384127 293.127201,14.8424862 293.691412,14.670137 C293.715725,14.4436073 293.740038,14.2161416 293.764351,13.9877397 C293.407795,12.9993945 292.883965,12.0798534 292.215802,11.2693836 L292.215802,11.2693836 L292.218607,11.2665753 Z M291.764141,14.1815068 L291.508855,14.0691781 C291.594885,14.1047489 291.679981,14.1421918 291.764141,14.1815068 L291.764141,14.1815068 L291.764141,14.1815068 Z" id="Shape"></path>
                        </g>
                    </g>
                </g>
            </g>
        </g>
    </g>
</svg>