<?xml version="1.0" encoding="UTF-8" standalone="no"?>
<svg width="351px" height="29px" viewBox="0 0 351 29" version="1.1" xmlns="http://www.w3.org/2000/svg" xmlns:xlink="http://www.w3.org/1999/xlink">
    <!-- Generator: sketchtool 3.7.2 (28276) - http://www.bohemiancoding.com/sketch -->
    <title>946B9F9A-203A-48DB-942E-C4ACD6984530</title>
    <desc>Created with sketchtool.</desc>
    <defs></defs>
    <g id="Tasma" stroke="none" stroke-width="1" fill="none" fill-rule="evenodd">
        <g id="privite-Deskcop" transform="translate(-276.000000, -277.000000)" fill="#FFC700">
            <g id="Group-5" transform="translate(275.000000, 260.000000)">
                <g id="Group-3">
                    <g id="Проект---Drawing-1" transform="translate(176.306202, 29.157551) rotate(3.000000) translate(-176.306202, -29.157551) translate(0.806202, 9.157551)">
                        <g id="Слой_2">
                            <path d="M350.025206,13.7259259 L348.661235,11.6851852 C345.983829,8.2018133 342.862546,5.08283621 339.3766,2.40740741 L337.334351,1.04814815 C336.68158,0.431441591 335.750305,0.207254888 334.888099,0.459259259 L334.517455,0.559259259 C331.793221,1.25925926 328.957793,1.51851852 326.155723,1.8962963 L320.262482,2.69259259 C306.604245,4 292.897825,4.78148148 279.209937,5.65555556 C272.271478,6.0962963 265.329314,6.51111111 258.394562,6.98888889 C250.870486,7.50740741 243.342703,8.08148148 235.811214,8.54074074 C219.572059,9.52839506 203.330433,10.4765432 187.086336,11.3851852 C173.64925,12.1259259 160.218342,12.9728395 146.793611,13.9259259 C130.569282,15.0888889 114.346188,16.2604938 98.1243295,17.4407407 C84.7811404,18.4111111 71.3934741,19.2111111 58.0206336,19.962963 C42.4412249,20.837037 26.8581098,21.591358 11.2712883,22.2259259 L7.84282999,22.362963 C6.78278775,22.4037037 5.73015839,22.3074074 4.6738226,22.2518519 C3.71900222,22.2197733 2.76330413,22.2793053 1.81986272,22.4296296 C1.28242872,22.5037037 0.659746568,22.6888889 0.470718057,23.2333333 C0.21852741,24.0949026 0.442879827,25.0254889 1.06004224,25.6777778 C2.01695361,27.2519919 3.12017118,28.7326092 4.35506864,30.1 C5.9037297,31.8601793 7.56392618,33.5191495 9.32540655,35.0666667 L11.7086484,37 C12.7798897,37.8818903 13.9947222,38.5734199 15.3001901,39.0444444 C16.7827666,39.3148148 18.2912883,39.5666667 19.7886906,39.8148148 C20.6535269,40.0197531 20.9846357,39.6888889 20.7820169,38.8222222 L20.5336853,38.262963 C20.9451003,38.262963 21.3565153,38.2851852 21.7716367,38.262963 L23.8583633,38.1814815 L31.5825871,37.8777778 C34.4266631,37.7666667 37.2682682,37.6432099 40.1074023,37.5074074 C47.49434,37.1592593 54.8775713,36.8185185 62.2608025,36.3962963 C78.009472,35.5111111 93.7655544,34.5185185 109.491985,33.5148148 C117.242154,33.0185185 124.988617,32.4037037 132.735079,31.8296296 L149.465956,30.6222222 C150.345618,31.508642 151.254931,32.3641975 152.193897,33.1888889 L154.573432,35.1222222 C155.644169,36.0048426 156.859134,36.6964475 158.164974,37.1666667 C159.202284,37.3366203 160.253735,37.4048459 161.304329,37.3703704 C162.301362,37.3703704 163.290982,37.3703704 164.288015,37.3407407 C165.985565,37.2962963 167.675702,37.1444444 169.365839,36.9888889 C173.240306,36.6308642 177.114773,36.2790123 180.98924,35.9333333 C188.120433,35.2888889 195.259039,34.7444444 202.401352,34.2333333 C210.204646,33.6753086 218.004234,33.0950617 225.800116,32.4925926 C229.135913,32.237037 232.471711,31.8740741 235.807508,31.5555556 C239.076589,31.2481481 242.345671,30.9740741 245.607339,30.5925926 C253.101763,29.7148148 260.599894,28.8703704 268.075787,27.8592593 C276.098997,26.7728395 284.117265,25.6530864 292.130591,24.5 C306.215069,22.4679012 320.299546,20.5037037 334.384023,18.6074074 L335.773939,18.4185185 C336.656072,18.3345679 337.538205,18.245679 338.420338,18.1518519 L344.054129,17.5481481 C345.388235,17.4156665 346.71362,17.2066799 348.023728,16.9222222 C348.816906,16.7444444 349.584139,16.4407407 350.369905,16.2222222 L350.577466,16.1666667 C350.644828,15.9317753 350.679744,15.6887857 350.681246,15.4444444 C350.671858,14.8050588 350.426331,14.1916957 349.991848,13.7222222 L349.991848,13.7222222 L350.025206,13.7259259 Z" id="Shape"></path>
                        </g>
                    </g>
                </g>
            </g>
        </g>
    </g>
</svg>