<?xml version="1.0" encoding="UTF-8" standalone="no"?>
<svg width="293px" height="45px" viewBox="0 0 293 45" version="1.1" xmlns="http://www.w3.org/2000/svg" xmlns:xlink="http://www.w3.org/1999/xlink">
    <!-- Generator: sketchtool 3.7.2 (28276) - http://www.bohemiancoding.com/sketch -->
    <title>E58520B7-E45D-41D7-8F26-5293BCF15FF6</title>
    <desc>Created with sketchtool.</desc>
    <defs></defs>
    <g id="Tasma" stroke="none" stroke-width="1" fill="none" fill-rule="evenodd">
        <g id="company-Deskcop" transform="translate(-617.000000, -718.000000)" fill="#FF5740">
            <g id="Проект---Drawing-11" transform="translate(762.890988, 720.452780) rotate(185.000000) translate(-762.890988, -720.452780) translate(614.390988, 690.952780)">
                <g id="Слой_2" transform="translate(-0.000000, 0.000000)">
                    <path d="M291.93355,25.5176027 L289.992252,23.6950685 C288.956882,22.75901 287.835357,21.923116 286.642672,21.1985616 C284.70979,20.229726 282.684332,19.7944521 280.566298,19.4574658 C278.204198,19.0755479 275.814046,18.8508904 273.432309,18.6543151 C271.050573,18.4577397 268.738969,18.320137 266.385286,18.2667808 L254.936679,18.0056164 C254.20729,17.9887671 253.475095,18.0196575 252.745706,18.0336986 L246.57395,18.1432192 C243.667615,18.1965753 240.750057,18.1684932 237.846527,18.3032877 L217.412405,19.2468493 C215.328034,19.3423288 213.246469,19.5276712 211.164905,19.6568493 L197.912462,20.5414384 C192.677691,20.8924658 187.454141,21.3530137 182.227786,21.8107534 L169.466279,22.9340411 C167.769046,23.0828767 166.074618,23.2317123 164.380191,23.4226712 L141.283798,26.0455479 C135.605782,26.6886301 129.944599,27.494589 124.280611,28.2331507 C112.183969,29.8076256 100.085458,31.3652511 87.9850763,32.9060274 C75.3610305,34.5263699 62.7117366,35.975411 50.0708588,37.4609589 C44.5134733,38.1124658 38.9504771,38.7443151 33.4099237,39.5278082 C27.1371756,40.4123973 20.8560115,41.2745205 14.6141221,42.3893836 C10.8381298,43.0661644 7.07896947,43.7626027 3.3478626,44.6696575 C3.15757451,45.32293 3.32731186,46.0282224 3.79391221,46.5230822 C4.08207341,47.123633 4.44804931,47.6835458 4.8823855,48.1883562 C6.41157452,50.2347463 8.16458707,52.1035289 10.1087405,53.759863 C11.5450763,55.0095205 13.2956107,56.5961644 15.2509351,56.9584247 C16.4884073,56.8952421 16.9849458,56.8211539 17.4755725,56.7169178 C18.0703053,56.5933562 18.6482061,56.4360959 19.2457443,56.3406164 L28.5622901,55.579589 C29.6086832,55.4953425 30.6747137,55.5093836 31.7239122,55.4784932 L38.369771,55.2734932 C39.4105534,55.2397945 40.4681679,55.1471233 41.5089504,55.1808219 L45.9975,55.3156164 L52.5535878,55.5121918 C53.3951908,55.5374658 54.2367939,55.5458904 55.0587595,55.6020548 C59.8278435,55.9278082 64.5829008,56.2282877 69.337958,56.5989726 C71.910458,56.7983562 74.482958,56.9949315 77.055458,57.1999315 L81.1540649,57.5284932 C82.6296756,57.6464384 84.1698092,57.6857534 85.6145611,58.0508219 C86.1813321,58.4122628 86.7862856,58.7098698 87.4183969,58.9382192 C88.2903835,58.211933 88.1206462,57.5066406 87.6540458,57.0117808 C86.9305129,55.8176844 86.0954558,54.6949845 85.1600954,53.6587671 C83.4832998,51.733871 81.6187945,49.9812833 79.5942939,48.4270548 C79.1454389,48.0788356 78.6937786,47.7530822 78.2280916,47.455411 C82.1686641,46.9836301 86.1092366,46.508105 90.0498092,46.0288356 C101.998702,44.5704338 113.94105,43.0596119 125.876851,41.4963699 L147.758531,38.6488356 C153.015744,37.9636301 158.286985,37.3907534 163.55542,36.7897945 L176.934103,35.2705479 L197.679618,33.4536301 C199.674218,33.2795205 201.668817,33.0660959 203.666221,32.9341096 L213.33624,32.2882192 C219.123664,31.9034932 224.902672,31.4597945 230.695706,31.1930137 L243.639561,30.594863 C245.662214,30.5021918 247.682061,30.3870548 249.707519,30.3505479 L260.620305,30.1539726 C262.598073,30.1174658 264.573034,30.0556849 266.550802,30.1006164 L277.278435,30.3449315 C279.326336,30.3926712 281.374237,30.530274 283.419332,30.6819178 C285.464427,30.8335616 287.456221,31.0441781 289.467653,31.299726 C291.353224,31.4979496 293.217611,31.8625638 295.039065,32.3893151 C295.514836,32.7384127 296.127201,32.8424862 296.691412,32.670137 C296.715725,32.4436073 296.740038,32.2161416 296.764351,31.9877397 C296.407795,30.9993945 295.883965,30.0798534 295.215802,29.2693836 C294.213759,27.9405385 293.115971,26.6877204 291.93355,25.5176027 Z" id="Shape"></path>
                </g>
            </g>
        </g>
    </g>
</svg>