<?xml version="1.0" encoding="UTF-8" standalone="no"?>
<svg width="34px" height="43px" viewBox="0 0 34 43" version="1.1" xmlns="http://www.w3.org/2000/svg" xmlns:xlink="http://www.w3.org/1999/xlink">
    <!-- Generator: sketchtool 3.7.2 (28276) - http://www.bohemiancoding.com/sketch -->
    <title>BE89ACA5-3083-4306-B346-7F5F853EC3CA</title>
    <desc>Created with sketchtool.</desc>
    <defs></defs>
    <g id="Tasma" stroke="none" stroke-width="1" fill="none" fill-rule="evenodd">
        <g id="privite-Deskcop" transform="translate(-363.000000, -335.000000)" fill="#4990E2">
            <g id="Group-5" transform="translate(275.000000, 260.000000)">
                <g id="Group-3">
                    <g id="2n" transform="translate(88.000000, 75.000000)">
                        <g id="Слой_2">
                            <path d="M33.7213534,14.2543713 C33.6355749,12.8336604 33.3427139,11.4333937 32.8521805,10.0985629 C32.4713342,9.10483594 31.976285,8.15943807 31.3771429,7.28167665 C31.0678195,6.82335329 30.7431579,6.38047904 30.3929323,5.95305389 C30.0427068,5.52562874 29.626015,5.11365269 29.2374436,4.71197605 C29.0976093,4.57032761 28.9481227,4.43868991 28.7900752,4.31802395 C28.7542857,4.2897006 28.4705263,4.06053892 28.383609,4.14035928 C28.3617339,4.21854699 28.3821024,4.30256303 28.4372932,4.36179641 C28.5746608,4.59871665 28.7470651,4.81317344 28.9485714,4.99778443 C29.1377444,5.1805988 29.3269173,5.35568862 29.5109774,5.54107784 C29.6234586,5.66810379 29.7342356,5.79770459 29.8433083,5.92988024 C30.0989474,6.26461078 30.3545865,6.60706587 30.5897744,6.95982036 C31.0036994,7.60713972 31.3677725,8.28545241 31.678797,8.9888024 C32.2729865,10.4526304 32.6377877,12.0005496 32.7601504,13.5771856 C32.8908209,15.1711235 32.8694197,16.7740102 32.6962406,18.3638323 L32.6962406,18.3380838 C32.3895371,21.2070157 31.6038989,24.0031561 30.3724812,26.608503 C29.2174295,29.1205359 27.7061563,31.4502174 25.886015,33.5245509 C24.0453727,35.5585173 21.8768798,37.2647494 19.4720301,38.5712575 C18.282357,39.2310518 17.0439505,39.7974808 15.7678195,40.265509 C14.4511618,40.7833598 13.0781588,41.142054 11.677594,41.3340719 C10.8844291,41.409852 10.0853705,41.3968988 9.29503759,41.2954491 C8.48810796,41.1897465 7.69936654,40.9731607 6.95082707,40.6517365 C6.5302227,40.4593666 6.12360137,40.2373795 5.73398496,39.9874251 C5.5635589,39.8724152 5.40250627,39.7531138 5.25082707,39.629521 C5.14516291,39.5402595 5.04120301,39.4492814 4.93894737,39.3565868 L4.75744361,39.1737725 C4.66882206,39.0742116 4.58360902,38.9737924 4.50180451,38.872515 C4.33137845,38.6562275 4.17032581,38.4356487 4.01864662,38.2107784 C3.71133059,37.7240952 3.43963368,37.2155029 3.20571429,36.6890419 C2.40347939,34.7436451 1.88428967,32.6917828 1.66421053,30.5969461 C1.38465098,28.3596147 1.35207126,26.0979721 1.56706767,23.8534132 C1.81844912,21.2877339 2.51044132,18.7855435 3.61218045,16.4584431 C4.74466165,14.1410778 6.30150376,12.0631737 7.97849624,10.1191617 C8.78631579,9.17934132 9.64526316,8.28586826 10.5348872,7.42329341 C11.4667812,6.51477833 12.4528224,5.66435717 13.4875188,4.87676647 C14.528166,4.08589606 15.6409143,3.39618325 16.8108271,2.81688623 C17.3799429,2.54376371 17.9656793,2.30726132 18.5645113,2.1088024 C19.1522664,1.91492635 19.7576985,1.78037273 20.3718797,1.70712575 C20.4971429,1.70712575 20.6275188,1.6942515 20.7451128,1.70712575 C20.84344,1.70460763 20.9417997,1.71063797 21.0390977,1.7251497 C21.2947368,1.77922156 20.9547368,1.3105988 20.9393985,1.28742515 C20.650711,0.881183125 20.2859799,0.535685293 19.8657143,0.270359281 C19.7342292,0.193587579 19.596548,0.128125889 19.4541353,0.0746706587 C19.3056464,0.0358671955 19.1524336,0.018527974 18.9990977,0.0231736527 C18.7054994,0.0141174213 18.411741,0.0348203673 18.1222556,0.0849700599 C17.4107152,0.198523704 16.7159918,0.400920661 16.0541353,0.68748503 C14.7553031,1.25490533 13.5350851,1.98972623 12.4240602,2.87353293 C11.3114454,3.74045516 10.2623115,4.68701908 9.28481203,5.70586826 C8.3013475,6.71762449 7.37043275,7.7798784 6.49578947,8.88838323 C4.75233083,11.0898802 3.1724812,13.4716168 2.09368421,16.0747904 C1.017844,18.7282013 0.404686643,21.5487088 0.281203008,24.4121557 C0.216782509,25.90592 0.260356195,27.4024259 0.411578947,28.8898204 C0.546693357,30.3286022 0.79458419,31.7543658 1.15293233,33.1537725 C1.48624374,34.4942075 1.99245515,35.7848887 2.65864662,36.9928743 C3.38070129,38.2402725 4.31027777,39.3533675 5.40676692,40.2835329 C6.47219268,41.2105473 7.70823047,41.9174553 9.04451128,42.364012 C9.67816461,42.5624124 10.3313025,42.6910479 10.9924812,42.7476647 C11.6728008,42.8167378 12.3585786,42.8106939 13.037594,42.7296407 C14.4433901,42.5320944 15.821327,42.1691352 17.1431579,41.6482036 C19.7647196,40.6516066 22.2002917,39.2160995 24.3470677,37.4022754 C25.405805,36.5030757 26.3765575,35.503758 27.246015,34.418024 C29.010405,32.1870497 30.4536363,29.7166203 31.5330827,27.0797006 C32.6499595,24.3889456 33.3600067,21.5447389 33.6395489,18.6419162 C33.7295033,17.7590614 33.7747249,16.8721624 33.7750376,15.9846707 C33.7750376,15.4061876 33.7554386,14.8285629 33.7162406,14.2517964 L33.7162406,14.2517964 L33.7213534,14.2543713 Z M3.96496241,38.1386826 L3.92406015,38.0794611 L3.96496241,38.1386826 L3.96496241,38.1386826 L3.96496241,38.1386826 Z" id="Shape"></path>
                            <path d="M22.3709774,27.0282036 L22.2942857,26.8505389 C22.186637,26.6671719 22.0616449,26.4947134 21.9210526,26.3355689 C21.6728247,26.0412333 21.3924027,25.7760614 21.0851128,25.5450898 C20.9498099,25.406708 20.7665897,25.3264317 20.5738346,25.3210778 C19.5257143,25.4755689 18.4929323,25.7227545 17.457594,25.9416168 C17.5112782,25.5708383 17.5547368,25.2000599 17.6007519,24.8267066 C17.6774436,24.1915768 17.7626566,23.5581637 17.856391,22.9264671 C18.0302256,21.7085629 18.2833083,20.4906587 18.5772932,19.2933533 C18.9403008,17.8153892 19.3237594,16.3425749 19.6816541,14.8646108 L20.3258647,12.2047904 C20.4945865,11.5095808 20.6428571,10.8117964 20.7783459,10.1088623 C20.8754887,9.61449102 20.9496241,9.11497006 21.021203,8.61802395 C21.0569925,8.36053892 21.0748872,8.10305389 21.0851128,7.86101796 C21.0793401,7.57410561 21.0319725,7.28958272 20.9445113,7.01646707 C20.8862182,6.84839784 20.7997531,6.69163682 20.6888722,6.55299401 C20.5182222,6.32722563 20.3319971,6.1138434 20.1315789,5.91443114 C19.9338269,5.71231979 19.7219565,5.52473408 19.497594,5.35311377 C19.367218,5.25784431 19.1141353,5.03383234 18.922406,5.09562874 C18.8547396,5.11555039 18.7895549,5.14319478 18.7281203,5.17802395 C18.658002,5.24901273 18.5970226,5.32859885 18.5466165,5.41491018 L18.3344361,5.71874251 C18.2066165,5.90155689 18.078797,6.08694611 17.9560902,6.26976048 C17.6646617,6.68431138 17.3604511,7.08856287 17.046015,7.48508982 C16.4124327,8.25402364 15.7400688,8.98968277 15.0315789,9.68916168 C14.666015,10.062515 14.2774436,10.4152695 13.9016541,10.7783234 C13.6178947,11.0512575 13.3290226,11.3138922 13.037594,11.5791018 L11.8130827,12.6862874 C11.337594,13.1162874 10.8288722,13.5128144 10.317594,13.8990419 C10.023609,14.120479 9.72962406,14.3419162 9.42796992,14.5530539 C9.30526316,14.6354491 9.17233083,14.7178443 9.05729323,14.8105389 L8.88601504,14.9444311 C8.78674555,14.9429833 8.7047411,15.0221384 8.70195489,15.1220958 C8.6712782,15.3229341 8.89879699,15.5443713 9.01639098,15.6834132 C9.14134477,15.8267739 9.27541143,15.9618086 9.41774436,16.0876647 C9.55200382,16.2274375 9.71402766,16.3371107 9.89323308,16.409521 L9.97759398,16.4301198 C10.082583,16.4240939 10.1848476,16.3941614 10.2766917,16.3425749 C10.4886746,16.2587719 10.6916689,16.1535224 10.8825564,16.0284431 C11.502184,15.6439012 12.0926272,15.2135779 12.6490226,14.741018 C13.1781955,14.3084431 13.6715789,13.8423952 14.1649624,13.3711976 C14.4819549,13.0699401 14.8091729,12.7764072 15.1133835,12.4622754 L16.4043609,11.1388024 C17.058797,10.4667665 17.7106767,9.79215569 18.3983459,9.15359281 L18.7434586,8.83173653 C18.523609,10.2607784 18.255188,11.6846707 17.9995489,13.1085629 C17.7796992,14.3290419 17.5521805,15.5486627 17.3169925,16.7674251 C17.0613534,18.0548503 16.8261654,19.3242515 16.4682707,20.5730539 C16.1461654,21.6956886 15.7882707,22.808024 15.4457143,23.9203593 C15.3613534,24.2087425 15.2769925,24.4945509 15.1900752,24.7803593 C15.1180013,25.0172322 15.0273915,25.2479754 14.9190977,25.4704192 C14.7401504,25.8334731 14.384812,25.9853892 14.0294737,26.1038323 C13.3827068,26.3304192 12.7154887,26.4977844 12.0687218,26.729521 C11.4219549,26.9612575 10.7240602,27.2213174 10.0593985,27.501976 C9.18367442,27.824122 8.32973321,28.2034294 7.50300752,28.637485 C7.47197662,28.7464422 7.50013655,28.8638074 7.57714286,28.9464671 C7.77233528,29.27625 8.0143425,29.5755218 8.29548872,29.8347904 C8.49031948,30.0329719 8.69875402,30.2170992 8.91924812,30.3858084 C9.05473684,30.4836527 9.28992481,30.6947904 9.48421053,30.6432934 C10.3942857,30.3600599 11.2609023,29.9480838 12.1530827,29.6133533 C13.0452632,29.2786228 13.9118797,28.9335928 14.8091729,28.6426347 L15.9902256,28.2564072 C16.1853093,28.2086637 16.3766905,28.1467041 16.5628571,28.071018 C16.9463158,27.9551497 17.3297744,27.8598802 17.7234586,27.7543114 C18.1503759,27.6358683 18.582406,27.5431737 19.0016541,27.4479042 C19.4209023,27.3526347 19.8861654,27.2856886 20.3335338,27.2161677 L21.0646617,27.1492216 C21.4639668,27.1256026 21.8643039,27.1256026 22.263609,27.1492216 C22.3428571,27.1672455 22.3837594,27.1492216 22.3837594,27.0848503 C22.3855534,27.068593 22.3855534,27.0521855 22.3837594,27.0359281 L22.3837594,27.0359281 L22.3709774,27.0282036 Z" id="Shape"></path>
                        </g>
                    </g>
                </g>
            </g>
        </g>
    </g>
</svg>