<?xml version="1.0" encoding="UTF-8" standalone="no"?>
<svg width="44px" height="58px" viewBox="0 0 44 58" version="1.1" xmlns="http://www.w3.org/2000/svg" xmlns:xlink="http://www.w3.org/1999/xlink">
    <!-- Generator: sketchtool 3.7.2 (28276) - http://www.bohemiancoding.com/sketch -->
    <title>24A69B89-55C5-4E77-A898-D2403F3133F7</title>
    <desc>Created with sketchtool.</desc>
    <defs></defs>
    <g id="Tasma" stroke="none" stroke-width="1" fill="none" fill-rule="evenodd">
        <g id="privite-Deskcop" transform="translate(-893.000000, -453.000000)" fill="#4990E2">
            <g id="Group-5" transform="translate(275.000000, 260.000000)">
                <g id="Group-3">
                    <g id="2nn" transform="translate(618.000000, 193.000000)">
                        <g id="Слой_2">
                            <path d="M43.212437,12.2692308 C42.6285736,10.9764224 41.8025489,9.80878885 40.7794958,8.83012821 C39.7603433,7.79811121 38.5213107,7.01243641 37.1559664,6.5324359 C36.4961489,6.28896383 35.8153899,6.10725283 35.1223529,5.98961538 C34.3828571,5.84833333 33.6618487,5.75166667 32.9297479,5.65128205 C32.822521,5.62525641 32.7818487,5.65128205 32.8040336,5.77397436 L32.8890756,5.96730769 C33.0081627,6.16459406 33.1455844,6.35008223 33.2994958,6.52128205 C33.4917743,6.74143657 33.6980324,6.94883655 33.9169748,7.14217949 L34.2127731,7.38384615 C34.3463849,7.4942124 34.4976676,7.58095869 34.6601681,7.64038462 C35.5290756,7.74076923 36.3905882,7.84115385 37.2484034,7.98987179 C38.0421236,8.13272678 38.816474,8.36856402 39.5556303,8.6925641 C39.824174,8.81983803 40.0858286,8.96131806 40.3394958,9.11641026 L40.5613445,9.29487179 L40.6020168,9.32833333 L40.7388235,9.46589744 L40.8534454,9.59974359 C40.9865546,9.77076923 41.1098039,9.9442735 41.2231933,10.1202564 C41.5093635,10.5702875 41.7638781,11.039895 41.9848739,11.525641 C42.1797573,11.9926459 42.3476558,12.4705784 42.4877311,12.9570513 C42.6496102,13.5550404 42.7609309,14.1657186 42.8205042,14.7825641 C42.9436503,15.964115 42.9436503,17.1553722 42.8205042,18.3369231 L42.8205042,18.3666667 C42.7170116,19.326512 42.5540053,20.2789213 42.332437,21.2183333 C42.0884034,22.2333333 41.7741176,23.2297436 41.4339496,24.2112821 C40.7500824,26.082266 39.940947,27.904515 39.0121008,29.6655128 C38.1345658,31.4005556 37.2003361,33.1058547 36.2094118,34.7814103 C35.2332773,36.4247436 34.1573109,38.0085897 33.0480672,39.5664103 C31.9573874,41.1103418 30.771887,42.5842786 29.4984874,43.9796154 C28.216838,45.3522787 26.8470655,46.6389699 25.3979832,47.8314103 C23.9559664,49.0323077 22.44,50.1142308 20.8870588,51.1775641 C19.3608376,52.2586342 17.7538121,53.2194864 16.0803361,54.0515385 C15.1520779,54.4868255 14.1960114,54.8594454 13.2184874,55.1669231 C12.2318842,55.4950271 11.2167654,55.7290501 10.1865546,55.8658974 C9.58288079,55.9260876 8.97476627,55.9260876 8.37109244,55.8658974 C7.8209749,55.7988659 7.28386783,55.6497486 6.77747899,55.4234615 C6.4145624,55.2495805 6.0626362,55.0533974 5.72369748,54.8360256 C5.55607843,54.7195299 5.39338936,54.5955983 5.23563025,54.4642308 L5.18016807,54.4158974 L5.18016807,54.4158974 L5.05445378,54.2708974 C4.93243697,54.1147436 4.81781513,53.9548718 4.70319328,53.7912821 C4.31814224,53.1969764 3.975868,52.5757325 3.6789916,51.9323077 C2.84561712,49.8293925 2.32484555,47.6145088 2.13344538,45.3589744 C1.8960325,42.9650011 1.90718508,40.5526759 2.16672269,38.1610256 C2.65282483,34.2874922 3.72386132,30.511216 5.34285714,26.9625641 C6.91323104,23.4434179 8.88089241,20.1175499 11.2070588,17.0505128 C13.5410957,13.9816263 16.2632125,11.2319409 19.3045378,8.87102564 C20.8193235,7.68212702 22.4115673,6.59653715 24.0705882,5.62153846 C25.7071605,4.65169592 27.4426064,3.86143594 29.2470588,3.26435897 C29.9579429,3.03629055 30.6881937,2.87449704 31.4285714,2.78102564 C32.1593534,2.71853446 32.894092,2.71853446 33.6248739,2.78102564 C34.23775,2.83626114 34.8407065,2.97252115 35.4181513,3.18628205 C35.5367274,3.27726687 35.6601608,3.36166627 35.7878992,3.43910256 L36.0023529,3.53576923 C36.1206723,3.56179487 36.1687395,3.51717949 36.1391597,3.39820513 L36.2020168,3.52089744 C36.3092437,3.30153846 35.9912605,2.93717949 35.8914286,2.79589744 C35.5657562,2.36222172 35.1937867,1.96575116 34.7821849,1.61358974 C34.3548998,1.22000522 33.8759218,0.887242929 33.3586555,0.624615385 C32.9517937,0.43827155 32.5267625,0.294979464 32.0904202,0.197051282 C31.1386523,-0.00324751639 30.1607463,-0.0459459483 29.1952941,0.0706410256 C27.3465546,0.245384615 25.6198319,0.98525641 23.9744538,1.81807692 C22.2953644,2.68328015 20.6933835,3.69208249 19.1862185,4.83333333 C17.6424891,5.99157867 16.1774864,7.25229524 14.8010084,8.60705128 C12.0702565,11.3147262 9.68326262,14.3518268 7.69445378,17.6491026 C5.65659179,20.9808153 3.96414073,24.5140243 2.64369748,28.1932051 C1.30806799,31.8740712 0.547235967,35.7406793 0.388235294,39.655641 C0.317895773,41.6218673 0.424322562,43.5904637 0.706218487,45.5374359 C0.952791303,47.3817911 1.45045114,49.1832849 2.18521008,50.8912821 C2.54926252,51.6789975 2.9836486,52.4318707 3.48302521,53.140641 C4.08849823,54.0181902 4.81138001,54.8076284 5.6312605,55.4866667 C6.3137878,56.0633617 7.05783434,56.5621388 7.8497479,56.9738462 C8.62910195,57.3829087 9.48352427,57.6271156 10.3603361,57.6914103 C11.1899606,57.7277358 12.0208599,57.6602964 12.8339496,57.490641 C13.7785989,57.3010353 14.7079779,57.0413071 15.6144538,56.7135897 C17.3453107,56.0835676 18.9959912,55.2499142 20.5321008,54.23 C22.0999707,53.2217797 23.6154572,52.1334737 25.072605,50.969359 C26.5386705,49.8054225 27.9327451,48.5526248 29.2470588,47.2179487 C30.5645556,45.8701621 31.7795139,44.4247715 32.8816807,42.8939744 C33.9909244,41.3547436 35.022521,39.7374359 36.0171429,38.1126923 C37.0117647,36.4879487 37.9509244,34.6996154 38.8235294,32.9447436 C39.6961345,31.1898718 40.5613445,29.3532051 41.3267227,27.5128205 C41.6964706,26.6242308 42.0218487,25.7207692 42.3472269,24.8135897 C42.6947899,23.8370085 42.9955182,22.8455556 43.2494118,21.8392308 C43.4823529,20.9134615 43.6709244,19.9802564 43.8114286,19.0358974 C43.9415729,18.1073006 44.0033655,17.1703099 43.9963025,16.2325641 C43.9892395,15.2948183 43.9963025,16.2325641 43.9963025,16.2325641 C44.0084404,14.8713449 43.7416077,13.5222017 43.212437,12.2692308 L43.212437,12.2692308 L43.212437,12.2692308 Z M35.3663866,3.13794872 L35.3331092,3.13794872 L35.3663866,3.13794872 L35.3663866,3.13794872 L35.3663866,3.13794872 Z M10.290084,55.8435897 L10.2272269,55.8435897 L10.290084,55.8435897 L10.290084,55.8435897 L10.290084,55.8435897 Z M6.71462185,55.3974359 L6.65915966,55.3714103 L6.71462185,55.3974359 L6.71462185,55.3974359 L6.71462185,55.3974359 Z M5.38722689,54.6203846 L5.29109244,54.5274359 L5.38722689,54.6203846 L5.38722689,54.6203846 L5.38722689,54.6203846 Z M5.35394958,54.6203846 L5.29848739,54.5608974 L5.35394958,54.6203846 L5.35394958,54.6203846 L5.35394958,54.6203846 Z" id="Shape"></path>
                            <path d="M27.4242017,17.3330769 C27.3566092,17.103341 27.264888,16.8814928 27.1505882,16.6712821 L26.8215126,16.1730769 C26.6085144,15.8919084 26.3762402,15.6260474 26.1263866,15.3774359 C25.6020358,14.8005994 24.9583763,14.3462744 24.2406723,14.0464103 C23.76,13.8679487 23.327395,14.0835897 22.9058824,14.2955128 C21.6623811,14.9394354 20.473913,15.685563 19.352605,16.5262821 C17.956374,17.4969107 16.6203347,18.55229 15.3519328,19.6865385 C14.3174058,20.6356782 13.3831481,21.6897334 12.5640336,22.8319231 C12.4509463,23.0184938 12.3579829,23.2166672 12.2867227,23.4230769 C12.2016807,23.6275641 12.4457143,23.9324359 12.5455462,24.07 C12.7858638,24.3933776 13.0611658,24.6889082 13.3663866,24.9511538 C13.5271719,25.0979682 13.7017752,25.2287117 13.8877311,25.3415385 C13.9643071,25.4153947 14.074358,25.4423504 14.1761345,25.4121795 C14.1169748,25.4382051 14.1428571,25.4382051 14.2648739,25.4121795 C14.3452249,25.302202 14.432935,25.1978578 14.527395,25.0998718 C14.8490756,24.7466667 15.1485714,24.3748718 15.4665546,24.0216667 C16.1321008,23.2780769 16.8309244,22.5791026 17.5519328,21.8987179 C18.5280672,20.9766667 19.5559664,20.1252564 20.6171429,19.2961538 C21.9482353,18.27 23.3421849,17.2326923 24.9394958,16.6935897 L24.9394958,16.6935897 C24.7382102,17.8207822 24.3952957,18.9176871 23.9189916,19.9579487 C23.4421598,21.0485681 22.8860313,22.1023631 22.2551261,23.1107692 C21.6413445,24.1480769 21.0201681,25.1779487 20.3620168,26.1892308 C19.8480672,26.9811538 19.3230252,27.7805128 18.7610084,28.5389744 C17.6776471,29.9926923 16.6238655,31.465 15.4739496,32.8666667 C14.9193277,33.5396154 14.3868908,34.2311538 13.810084,34.8817949 C13.2332773,35.5324359 12.6305882,36.2574359 12.0020168,36.904359 C11.3734454,37.5512821 10.6487395,38.2948718 9.94621849,38.9641026 C9.62823529,39.2652564 9.30655462,39.5664103 8.97747899,39.8601282 C8.64840336,40.1538462 8.2712605,40.4029487 7.94588235,40.6966667 C7.90545962,40.8411613 7.94335092,40.9963879 8.04571429,41.105641 C8.30445342,41.5401939 8.62453983,41.9346896 8.99596639,42.2767949 C9.25273582,42.5442066 9.52829203,42.7927104 9.8205042,43.0203846 C9.94621849,43.1096154 10.3566387,43.4702564 10.56,43.3475641 C11.1042584,43.0075817 11.6277731,42.6351197 12.1277311,42.2321795 C12.5936134,41.8789744 13.0816807,41.5555128 13.554958,41.2171795 C14.0282353,40.8788462 14.4645378,40.6074359 14.9415126,40.3360256 C15.6364947,39.953064 16.3687357,39.6428484 17.1267227,39.4102564 C17.8535702,39.1943229 18.5950012,39.0315476 19.3452101,38.9232051 C20.0847059,38.7967949 20.8057143,38.6964103 21.5378151,38.6108974 L21.467563,38.6108974 L22.9687395,38.4510256 L24.8581513,38.2688462 C24.9912605,38.2985897 25.0393277,38.2502564 25.0097479,38.1164103 L24.9062185,37.8821795 C24.7614311,37.6412967 24.5942996,37.4147312 24.4070588,37.2055128 C24.1760813,36.9425191 23.9291088,36.6941793 23.667563,36.4619231 L23.2978151,36.1644872 C23.1356117,36.0300729 22.9518006,35.9244565 22.7542857,35.8521795 C20.9905882,35.9971795 19.2231933,36.1198718 17.4742857,36.3801282 C16.9529412,36.4582051 16.4352941,36.54 15.9176471,36.6441026 C16.4352941,36.0492308 16.9566387,35.4617949 17.4742857,34.870641 C18.6611765,33.5173077 19.8036975,32.1230769 20.9536134,30.7362821 C21.4897479,30.0930769 21.9852101,29.4089744 22.4843697,28.7397436 C23.2571429,27.7024359 23.9633613,26.6316667 24.7028571,25.5497436 C25.3584599,24.5726784 25.9488876,23.5529613 26.4702521,22.4973077 C26.7216807,21.9730769 26.932437,21.4228205 27.1357983,20.8725641 C27.3615097,20.283983 27.5070299,19.6674135 27.5684034,19.0396154 C27.5684034,18.8574359 27.5905882,18.6678205 27.5905882,18.4930769 C27.5925654,18.1026598 27.5491332,17.7133494 27.4611765,17.3330769 L27.4611765,17.3330769 L27.4242017,17.3330769 Z M21.5304202,38.6183333 L21.5969748,38.6183333 L21.5304202,38.6183333 L21.5304202,38.6183333 L21.5304202,38.6183333 Z" id="Shape"></path>
                        </g>
                    </g>
                </g>
            </g>
        </g>
    </g>
</svg>