<?xml version="1.0" encoding="UTF-8" standalone="no"?>
<svg width="37px" height="46px" viewBox="0 0 37 46" version="1.1" xmlns="http://www.w3.org/2000/svg" xmlns:xlink="http://www.w3.org/1999/xlink">
    <!-- Generator: sketchtool 3.7.2 (28276) - http://www.bohemiancoding.com/sketch -->
    <title>72A76E67-458A-4958-AE54-8608455A53AD</title>
    <desc>Created with sketchtool.</desc>
    <defs></defs>
    <g id="Tasma" stroke="none" stroke-width="1" fill="none" fill-rule="evenodd">
        <g id="privite-Deskcop" transform="translate(-361.000000, -544.000000)" fill="#4990E2">
            <g id="Group-5" transform="translate(275.000000, 260.000000)">
                <g id="Group-3">
                    <g id="3n" transform="translate(105.012248, 307.897119) rotate(20.000000) translate(-105.012248, -307.897119) translate(88.012248, 284.397119)">
                        <g id="Слой_2" transform="translate(-0.000000, 0.000000)">
                            <path d="M33.5658462,18.2197207 C33.1794954,15.774975 32.4934147,13.3875942 31.5232308,11.1119553 C31.0746326,10.0672054 30.5327819,9.06535449 29.9043077,8.11865922 C29.1842233,7.05555231 28.341449,6.08165849 27.3935385,5.21726257 C25.6307692,3.5998324 23.4966154,2.24497207 21.1401538,1.73296089 C20.5254835,1.6115414 19.8968044,1.57795034 19.2727692,1.63318436 C18.7375722,1.67268407 18.2055165,1.74723756 17.68,1.85636872 L17.6041538,1.76709497 C17.4415152,1.58066463 17.266775,1.40523536 17.0810769,1.24195531 C16.896944,1.08397422 16.7039623,0.936694652 16.5030769,0.800837989 C16.3570359,0.709786792 16.2029487,0.632439325 16.0427692,0.569776536 C15.7128918,0.438040249 15.3673987,0.349781861 15.0149231,0.307206704 C14.3091349,0.214913521 13.5937144,0.226412464 12.8912308,0.341340782 C11.5403401,0.55562784 10.2503054,1.05595481 9.10676923,1.80910615 C6.78953846,3.30050279 5.12876923,5.65050279 3.82630769,8.03726257 C2.44015385,10.5763128 1.54046154,13.3464246 0.894461538,16.1585475 C0.248610531,19.025522 -0.0473593485,21.9607421 0.0130769231,24.8994972 C0.0404238619,26.4144507 0.153065146,27.9266402 0.350461538,29.4288268 C0.53116906,30.8852827 0.786948064,32.3313566 1.11676923,33.7612291 C1.45423665,35.1493539 1.93274451,36.4990346 2.54476923,37.7890503 C3.12563707,39.038642 3.83475628,40.2239947 4.66061538,41.3258659 C6.30235237,43.5445522 8.55943841,45.2278306 11.1493846,46.1650279 C11.7853962,46.3747552 12.4381446,46.5293621 13.1004615,46.6271508 C13.8296424,46.7417906 14.5672527,46.7936181 15.3052308,46.782067 C16.681883,46.7457138 18.0469362,46.5186331 19.3616923,46.1072626 C20.6747725,45.7099998 21.9323498,45.1471079 23.1043077,44.432067 C24.2672385,43.7288835 25.3579458,42.911805 26.3604615,41.9927933 C28.4018538,40.0998363 30.0614022,37.8302417 31.2486154,35.3077654 C31.8626983,34.0161152 32.3675026,32.6749092 32.7576923,31.298324 C33.168858,29.8815936 33.4885983,28.4397194 33.7149231,26.981676 C33.9004838,25.7396998 33.9922837,24.4854202 33.9895385,23.2295531 C33.9844936,21.5508093 33.8427911,19.8752876 33.5658462,18.2197207 L33.5658462,18.2197207 L33.5658462,18.2197207 Z M32.7393846,17.4924022 C33.2144467,20.0277529 33.3306701,22.6177324 33.0846154,25.1856983 L33.0846154,25.1410615 C32.9388849,26.3861514 32.7117278,27.6202685 32.4046154,28.835419 C32.1053693,30.0473114 31.7279579,31.2383895 31.2747692,32.4011173 C30.3624502,34.6986407 29.076504,36.8281537 27.4693846,38.7027933 C25.9417533,40.4833217 24.1395271,42.0063175 22.1313846,43.213743 C20.0453172,44.482352 17.7102947,45.2822747 15.2869231,45.5584916 C13.2181722,45.7794657 11.1272728,45.4752025 9.20615385,44.6736313 C8.64436383,44.4213892 8.10078766,44.1301047 7.57938462,43.8018994 C7.34138462,43.6391061 7.11384615,43.4684358 6.88630769,43.2898883 C6.72764103,43.1568529 6.57158974,43.0203166 6.41815385,42.8802793 C6.26471795,42.7402421 6.11302564,42.5879516 5.96307692,42.4234078 C5.8305641,42.2711173 5.70328205,42.1179516 5.58123077,41.9639106 C5.34061538,41.6593296 5.11307692,41.3468715 4.896,41.0265363 C4.27832019,40.0792923 3.73779631,39.0835459 3.27969231,38.0489944 C2.76507093,36.8569759 2.3656982,35.6180828 2.08707692,34.3493855 C1.79153846,32.9892737 1.59538462,31.6055307 1.43323077,30.2244134 C1.11074593,27.4806881 1.08969641,24.7096848 1.37046154,21.9613408 L1.37046154,21.9613408 C1.62387528,19.7598726 2.08449798,17.5874635 2.74615385,15.4732402 C3.37537025,13.4080152 4.23887988,11.4222163 5.31969231,9.5549162 C5.84784752,8.65591559 6.43316306,7.79202103 7.072,6.96860335 C7.70399555,6.14648443 8.41920511,5.39237697 9.20615385,4.71837989 C10.8053107,3.33608933 12.7712304,2.45190604 14.8632308,2.17407821 C15.3393031,2.12409944 15.8186663,2.11356104 16.2964615,2.14256983 L16.5161538,2.16357542 L15.7315385,2.42614525 C15.1535385,2.61782123 14.5833846,2.83050279 14.008,3.03793296 C13.9862041,3.11393712 14.0061034,3.1958458 14.0603077,3.25324022 C14.1959657,3.48148918 14.3642739,3.6885019 14.5598462,3.86765363 C14.6946502,4.00453411 14.8388501,4.13175495 14.9913846,4.24837989 C15.0931094,4.35715733 15.2350731,4.41891752 15.3836923,4.41905028 C16.2049231,4.10396648 17.0261538,3.79413408 17.8552308,3.50268156 C18.685945,3.21542436 19.5453837,3.01996743 20.4183077,2.91977654 C21.0716721,2.85177999 21.7313763,2.87830759 22.3772308,2.99854749 C23.0507928,3.13882355 23.7074955,3.350959 24.3361538,3.63134078 C24.929401,3.9060143 25.5019403,4.2236884 26.0492308,4.58184358 C26.3717949,4.80240223 26.685641,5.03346369 26.9907692,5.27502793 C27.1825641,5.4343203 27.37,5.59798883 27.5530769,5.76603352 C27.6977949,5.90607076 27.8398974,6.04873371 27.9793846,6.19402235 C28.1676923,6.40057728 28.3507692,6.61150838 28.5286154,6.82681564 C28.8075897,7.17690875 29.0691282,7.54013035 29.3132308,7.91648045 C29.835915,8.73989507 30.2957918,9.60183395 30.6889231,10.4949162 C31.6401247,12.7406942 32.3282244,15.0898118 32.7393846,17.4950279 L32.7393846,17.4950279 L32.7393846,17.4924022 Z M29.3655385,7.9873743 L29.3210769,7.92173184 L29.3655385,7.9873743 L29.3655385,7.9873743 L29.3655385,7.9873743 Z M29.308,7.90072626 L29.2844615,7.86396648 L29.308,7.90072626 L29.308,7.90072626 L29.308,7.90072626 Z M15.2895385,45.5742458 L15.232,45.5742458 L15.2895385,45.5742458 L15.2895385,45.5742458 L15.2895385,45.5742458 Z M9.19830769,44.6841341 L9.13292308,44.6552514 L9.19830769,44.6841341 L9.19830769,44.6841341 L9.19830769,44.6841341 Z M5.53676923,41.9061453 L5.49753846,41.8588827 L5.53676923,41.9061453 L5.53676923,41.9061453 L5.53676923,41.9061453 Z" id="Shape"></path>
                            <path d="M27.2889231,24.8627374 C27.144632,24.5974558 26.9690055,24.350609 26.7658462,24.1275419 C26.5336539,23.8540255 26.2837804,23.5961497 26.0178462,23.3555866 C25.6794762,23.032215 25.2994813,22.7558089 24.888,22.533743 C24.5083735,22.3610684 24.0964642,22.271559 23.6796923,22.2711732 C23.3369167,22.2531798 22.9932666,22.2619586 22.6518462,22.2974302 C21.9655506,22.3670889 21.2836316,22.4749081 20.6092308,22.6203911 C20.0443077,22.7385475 19.4872308,22.9197207 18.9353846,23.0851397 C18.6773333,23.1621601 18.4201538,23.2426816 18.1638462,23.3267039 C18.3905128,22.9416015 18.6145641,22.5547486 18.836,22.1661453 C19.6336923,20.7797765 20.2744615,19.2778771 20.3529231,17.6604469 C20.3997494,16.8132882 20.1478877,15.9766359 19.6415385,15.2973184 C19.2767485,14.8073292 18.8621565,14.3567834 18.4044615,13.9529609 C18.0056707,13.5745873 17.5180385,13.3036158 16.9869231,13.1652514 C16.614561,13.1176407 16.2366002,13.1407997 15.8727692,13.2335196 C15.4885921,13.3054908 15.11077,13.4082211 14.7429231,13.5407263 C13.8530664,13.8560507 12.9941756,14.2533489 12.1772308,14.7275419 C11.2671993,15.2066614 10.3930968,15.7516196 9.56184615,16.3581006 C8.92307839,16.8033079 8.38776672,17.3819329 7.99261538,18.0543017 C7.91985792,18.1753031 7.90452128,18.3225381 7.95076923,18.4560335 C8.0056166,18.6086914 8.08611481,18.7507849 8.18876923,18.8761453 C8.31051615,19.0367254 8.44335638,19.1885148 8.58630769,19.3303911 C8.71684299,19.4628298 8.85669041,19.5856789 9.00476923,19.6979888 C9.09495359,19.7732249 9.19765718,19.8318901 9.30815385,19.8712849 C9.38138462,19.8896648 9.41015385,19.8712849 9.39184615,19.7872626 L9.58015385,19.8634078 C9.64100365,19.7779165 9.71022011,19.6987514 9.78676923,19.627095 C9.95153846,19.4564246 10.1136923,19.2831285 10.2810769,19.1150838 C10.6250833,18.7771596 10.9892978,18.4606129 11.3716923,18.1672067 C11.9569034,17.7171766 12.5682375,17.3024604 13.2024615,16.9252514 C13.6889231,16.6311732 14.1727692,16.3397207 14.6775385,16.0771508 C15.6375999,15.5957938 16.6740592,15.2865622 17.7401538,15.1634078 C17.9284615,15.1476536 18.1167692,15.1318994 18.3076923,15.1240223 C18.3869849,15.5993659 18.4045673,16.0830232 18.36,16.562905 C18.1670118,17.9979648 17.7008495,19.3823552 16.9869231,20.6406145 C16.83,20.9215642 16.6913846,21.2208939 16.5161538,21.4913408 C16.3409231,21.7617877 16.1656923,22.0322346 15.9930769,22.3026816 C15.9093846,22.4287151 15.8073846,22.5442458 15.7132308,22.6650279 C15.6190769,22.7858101 15.5667692,22.864581 15.4856923,22.9564804 C15.2712308,23.195419 15.062,23.4343575 14.8370769,23.6601676 C14.6121538,23.8859777 14.4316923,24.0618994 14.2198462,24.2509497 C13.9583077,24.4951397 13.668,24.7262011 13.4195385,24.9940223 C13.3852137,25.1104624 13.4150913,25.2364431 13.498,25.3248603 C13.6272261,25.5371191 13.7760893,25.7366792 13.9426154,25.9208939 C14.1507174,26.1595957 14.3743897,26.38415 14.6121538,26.5930726 L14.9312308,26.8556425 C15.0754879,26.9748399 15.2391787,27.0681119 15.4150769,27.1313408 C15.5327692,27.1313408 15.6478462,27.1077095 15.7629231,27.0893296 C15.9387611,27.0378856 16.1061698,26.9609278 16.2598462,26.8608939 L16.7672308,26.598324 C17.0575385,26.4486592 17.3478462,26.293743 17.6407692,26.1493296 L18.5456923,25.7003352 C18.8621538,25.545419 19.21,25.4377654 19.5369231,25.3064804 C19.8167692,25.1935754 20.1123077,25.1174302 20.3973846,25.0255307 C20.6824615,24.9336313 21.0407692,24.8391061 21.3676923,24.7629609 C21.9841587,24.6121387 22.6084396,24.4955558 23.2376923,24.413743 C23.5515385,24.3822346 23.8627692,24.3507263 24.1766154,24.3349721 C24.658033,24.298485 25.1415055,24.298485 25.6229231,24.3349721 C25.6256978,24.4770048 25.6195832,24.6190722 25.6046154,24.7603352 C25.194,27.2757542 23.3109231,29.2240223 21.4566154,30.7994413 C21.0590769,31.1407821 20.6301538,31.4532402 20.2169231,31.7762011 C19.9083077,32.0151397 19.6023077,32.2593296 19.2832308,32.4851397 C18.4436923,33.0811732 17.5989231,33.6667039 16.7436923,34.2391061 C15.7995385,34.8718994 14.8475385,35.4889385 13.8955385,36.1086034 C13.8694146,36.2011271 13.8932017,36.300631 13.9583077,36.3711732 C14.1269332,36.6523863 14.3347846,36.9079198 14.5755385,37.13 C14.7383832,37.2991218 14.9131982,37.4561982 15.0986154,37.6 C15.164,37.6472626 15.4595385,37.8993296 15.5824615,37.8100559 C16.8657436,36.8770577 18.1612308,35.9615642 19.4689231,35.0635754 C20.604,34.2758659 21.7233846,33.4881564 22.8401538,32.6689385 C24.1336174,31.766941 25.2902683,30.6817869 26.2741538,29.4472067 C26.7716696,28.8062235 27.1612855,28.0877804 27.4275385,27.3203911 C27.5433385,26.9604257 27.6136326,26.5872802 27.6367692,26.2097207 L27.6367692,26.0915642 C27.6104454,25.6622023 27.4889225,25.2441655 27.2810769,24.8679888 L27.2810769,24.8679888 L27.2889231,24.8627374 Z M26.5827692,24.6001676 L26.5409231,24.5712849 L26.5827692,24.6001676 L26.5827692,24.6001676 L26.5827692,24.6001676 Z M18.0330769,14.2864246 L17.9781538,14.2050279 L18.0330769,14.2864246 L18.0330769,14.2864246 L18.0330769,14.2864246 Z" id="Shape"></path>
                        </g>
                    </g>
                </g>
            </g>
        </g>
    </g>
</svg>