<?xml version="1.0" encoding="UTF-8" standalone="no"?>
<svg width="44px" height="51px" viewBox="0 0 44 51" version="1.1" xmlns="http://www.w3.org/2000/svg" xmlns:xlink="http://www.w3.org/1999/xlink">
    <!-- Generator: sketchtool 3.7.2 (28276) - http://www.bohemiancoding.com/sketch -->
    <title>833872AD-449A-439B-B12B-6663E05F7B23</title>
    <desc>Created with sketchtool.</desc>
    <defs></defs>
    <g id="Tasma" stroke="none" stroke-width="1" fill="none" fill-rule="evenodd">
        <g id="company-Deskcop" transform="translate(-915.000000, -660.000000)" fill="#4990E2">
            <g id="4n" transform="translate(915.000000, 660.000000)">
                <g id="Слой_2">
                    <path d="M43.4809581,11.3098446 C43.3056893,10.3231248 43.0119763,9.36131077 42.6062275,8.4453886 C42.2335884,7.57405744 41.7109674,6.77529552 41.0622754,6.08564767 C40.3691092,5.35296925 39.5696935,4.72937107 38.691018,4.23590674 C38.1806171,3.9581683 37.6369929,3.74682717 37.0732934,3.60699482 C36.4601894,3.45603256 35.8334622,3.36750125 35.2026347,3.34274611 C34.5579071,3.31818287 33.912325,3.32876842 33.2687425,3.37445596 C32.6512182,3.40585931 32.0356659,3.46847771 31.4244311,3.56207254 C30.0927982,3.81807853 28.7816011,4.17135111 27.5013174,4.61906736 C26.8637126,4.82253886 26.2366467,5.04450777 25.6148503,5.29290155 C24.9930539,5.54129534 24.297485,5.83725389 23.6388024,6.08564767 C23.5729341,6.10943005 23.8601198,6.42388601 23.8732934,6.43709845 C23.9311458,6.49486353 23.9927583,6.54871252 24.0577246,6.59829016 C24.1008057,6.64411408 24.160916,6.66995151 24.2237126,6.66963731 C24.8982036,6.42388601 25.5674251,6.15963731 26.2392814,5.90595855 C26.9559281,5.64170984 27.6831138,5.41181347 28.4129341,5.17927461 C29.8157564,4.69059565 31.2616923,4.33667432 32.7312575,4.12227979 C34.7020359,3.93994819 36.7966467,3.77611399 38.6541317,4.5688601 C39.0287057,4.74033421 39.389815,4.93997071 39.7343713,5.16606218 C39.9275848,5.29642487 40.1128942,5.43031088 40.2902994,5.56772021 C40.4273054,5.68046632 40.5607984,5.79673575 40.6907784,5.9165285 C40.7961677,6.01694301 40.8989222,6.12 40.9990419,6.22569948 C41.0991617,6.33139896 41.1492216,6.39481865 41.222994,6.48994819 C41.331018,6.62735751 41.4337725,6.76740933 41.5312575,6.91010363 C41.8030424,7.3312939 42.0417658,7.77303949 42.2452695,8.23134715 C42.4893272,8.78559104 42.6978942,9.35488108 42.8697006,9.9357513 C43.0584967,10.6229657 43.1898102,11.324777 43.2622754,12.033886 C43.4184898,13.4662465 43.4184898,14.9114219 43.2622754,16.3437824 L43.2622754,16.3437824 C42.9952304,18.6206289 42.4909992,20.8631365 41.7578443,23.0345596 C41.0404738,25.1719203 40.1795814,27.2580938 39.1810778,29.2787565 C38.2043256,31.2614332 37.0860462,33.1707543 35.8349701,34.9918135 C34.607633,36.795194 33.2469159,38.5035269 31.7643114,40.1023834 C30.7427002,41.2117594 29.6561476,42.2591561 28.5104192,43.2390155 C27.3626829,44.2154269 26.1279559,45.0840494 24.8217964,45.8339378 C22.0976242,47.396289 19.0845146,48.3853334 15.9664671,48.7406736 C14.7076453,48.8719434 13.4395649,48.8887476 12.1777246,48.7908808 C10.9018426,48.70601 9.64812572,48.4141915 8.46538922,47.9267876 C7.93278846,47.6812523 7.41932818,47.395942 6.92934132,47.0732642 C6.67289421,46.8970984 6.42259481,46.7121244 6.17844311,46.518342 C6.04670659,46.4091192 5.91760479,46.2963731 5.79113772,46.1801036 C5.66467066,46.0638342 5.5443513,45.9431606 5.43017964,45.8180829 C5.24399202,45.6154922 5.06834331,45.4084974 4.90323353,45.1970984 C4.61516966,44.8324352 4.34203593,44.4580829 4.08383234,44.0740415 C3.55837865,43.2750586 3.09674032,42.435655 2.70323353,41.5636788 L2.72431138,41.6112435 C2.3595388,40.7802304 2.05058599,39.9256813 1.79952096,39.0533161 C1.53456479,38.1041432 1.32779086,37.1395932 1.18035928,36.1650777 C0.856433644,34.1664446 0.793548988,32.1339986 0.993293413,30.1190674 L0.993293413,30.1666321 C1.12122968,29.0087183 1.32810113,27.860954 1.61245509,26.731399 C1.90745062,25.6130847 2.25920627,24.5106122 2.66634731,23.4282902 C3.43103529,21.316476 4.35498489,19.266142 5.43017964,17.2950777 C5.95712575,16.3173575 6.53676647,15.3554922 7.15329341,14.4253368 C7.76436713,13.5076686 8.426744,12.6254284 9.13724551,11.7828497 C10.5574917,10.1034983 12.1428225,8.57193017 13.8692216,7.21134715 C15.5815745,5.84512027 17.420192,4.64614661 19.36,3.6307772 C20.3443182,3.11610018 21.3649387,2.67450177 22.4136527,2.30953368 C22.9116168,2.13777202 23.4227545,1.98450777 23.9338922,1.85766839 C24.1973653,1.7942487 24.4608383,1.74404145 24.7243114,1.69911917 C24.9877844,1.65419689 25.285509,1.60134715 25.5674251,1.56435233 L25.7439521,1.54321244 C25.811452,1.53518284 25.8777759,1.51921824 25.9415569,1.49564767 C26.068024,1.45865285 25.6069461,0.895803109 25.5990419,0.887875648 C25.4631442,0.732063794 25.3170311,0.585520638 25.1616766,0.449222798 C25.116008,0.408704663 25.0694611,0.369067358 25.0220359,0.330310881 C24.9561799,0.276177159 24.8866289,0.22673005 24.8138922,0.182331606 L24.7717365,0.155906736 C24.6575157,0.100208335 24.5384575,0.055098367 24.4160479,0.0211398964 L24.2764072,0.0211398964 L23.9997605,0.0211398964 L23.5834731,0.0211398964 C23.3264749,0.0399298887 23.0705823,0.0716798901 22.8167665,0.11626943 C22.5005988,0.16119171 22.1923353,0.221968912 21.8814371,0.295958549 C21.3680927,0.427582352 20.8630754,0.589945996 20.3691018,0.782176166 C19.8421557,0.980362694 19.3020359,1.20761658 18.7882635,1.45072539 C17.7875295,1.93766782 16.8194199,2.48934946 15.8900599,3.10227979 C13.1112163,4.90592998 10.6234333,7.1247929 8.51281437,9.68207254 C7.10621327,11.4118466 5.87911047,13.2809401 4.85053892,15.2603627 C3.79413433,17.2674451 2.87854108,19.3459562 2.11041916,21.4807772 C1.71784431,22.5721244 1.34634731,23.6740415 1.03281437,24.789171 C0.718558006,25.9187347 0.470469382,27.0657726 0.289820359,28.2244041 C-0.0580950949,30.4657772 -0.0847116949,32.7455267 0.210778443,34.994456 C0.348350827,36.0883082 0.55961244,37.1715629 0.843113772,38.2367876 C1.13013507,39.2767138 1.50382651,40.2905957 1.96023952,41.2677202 C2.89130333,43.2981704 4.20769976,45.1273437 5.83592814,46.6531088 C6.63450147,47.3914947 7.51916533,48.0303278 8.47065868,48.5556995 C9.39341423,49.0619245 10.3875184,49.4245621 11.4189222,49.6311917 C12.4925395,49.8400983 13.5845142,49.9392586 14.6780838,49.9271503 C15.7539032,49.9233868 16.8277725,49.8350332 17.8898204,49.6629016 C20.0599589,49.3101557 22.1649087,48.6322728 24.1341317,47.6519689 C25.1115996,47.1693984 26.0544673,46.6193183 26.9559281,46.0056995 C27.8360929,45.4018883 28.6757461,44.740723 29.4694611,44.0264767 C31.0717645,42.5811463 32.5538818,41.0071737 33.9010778,39.3202073 C35.2757591,37.6059821 36.526911,35.795699 37.6450299,33.9031088 C38.7880836,31.9759793 39.7910068,29.9686433 40.645988,27.8967358 C41.5360292,25.7854629 42.268737,23.6108989 42.8380838,21.3909326 C43.1168354,20.2702385 43.3384403,19.1360204 43.5020359,17.9926943 C43.6700633,16.8880435 43.7581179,15.77264 43.765509,14.6552332 C43.7725115,13.5425133 43.6843643,12.4312404 43.5020359,11.3336269 L43.5020359,11.3336269 L43.4809581,11.3098446 Z M41.2756886,6.55336788 L41.2282635,6.49787565 L41.2756886,6.55336788 L41.2756886,6.55336788 L41.2756886,6.55336788 Z M39.8028743,5.20305699 L39.7633533,5.17663212 L39.8028743,5.20305699 L39.8028743,5.20305699 L39.8028743,5.20305699 Z M25.5516168,1.55378238 L25.5094611,1.55378238 L25.5516168,1.55378238 L25.5516168,1.55378238 L25.5516168,1.55378238 Z" id="Shape"></path>
                    <path d="M28.3338922,21.2165285 C28.2737715,21.048889 28.1845745,20.8932294 28.0704192,20.7567358 C27.7287499,20.3092988 27.3301544,19.9086416 26.8847904,19.5649741 C26.8610778,19.5491192 26.4,19.1818135 26.3104192,19.3139378 C25.9362874,19.8741451 25.5753293,20.4422798 25.2038323,21.0051295 C24.8955689,21.4702073 24.5451497,21.9062176 24.2026347,22.3448705 C23.8601198,22.7835233 23.4965269,23.2063212 23.1302994,23.6238342 C22.6670727,24.1607791 22.1763518,24.6732311 21.6601198,25.1591192 C21.4016223,25.3948305 21.1297943,25.6154035 20.845988,25.8197409 C20.5639492,26.0231881 20.242695,26.165388 19.9027545,26.2372539 C19.4759281,26.2372539 19.0411976,26.1923316 18.617006,26.1764767 C18.2376048,26.1606218 17.8608383,26.1500518 17.4814371,26.1500518 C16.6778443,26.1500518 15.8716168,26.1659067 15.068024,26.1870466 C14.1985629,26.210829 13.3264671,26.2293264 12.457006,26.2821762 L11.6191617,26.3297409 C11.8641916,25.9756477 12.1118563,25.6241969 12.3726946,25.2727461 C13.0998802,24.3214508 13.8376048,23.3860104 14.5858683,22.4505699 C15.868982,20.8492228 17.1810778,19.2795855 18.4773653,17.6808808 C19.1334132,16.8881347 19.7762874,16.0689637 20.445509,15.2788601 L21.7365269,13.7541451 L22.2950898,13.0961658 C22.5199202,12.8354404 22.7535329,12.5826425 22.9959281,12.337772 C23.0934132,12.24 23.1671856,12.1158031 23.2594012,12.0127461 L23.3726946,11.9678238 C23.3823978,11.9127583 23.3823978,11.8564127 23.3726946,11.8013472 L23.3068263,11.6507254 C23.2141881,11.4974906 23.1074553,11.3532868 22.988024,11.22 C22.8377821,11.0486325 22.6767327,10.8871091 22.5058683,10.7364249 C22.36648,10.6122315 22.2156198,10.501629 22.0553293,10.406114 C21.9519099,10.3192244 21.818169,10.2773668 21.6838323,10.2898446 C21.5551764,10.3459971 21.4339371,10.4178897 21.3228743,10.503886 C21.062617,10.7121989 20.821055,10.9429774 20.6009581,11.1935751 C20.3743713,11.4393264 20.1477844,11.7035751 19.9291018,11.9678238 L18.6117365,13.6008808 C18.3298204,13.9470466 18.0847904,14.3169948 17.805509,14.6737306 L16.7226347,16.1297409 C15.439521,17.8526425 14.1932934,19.6046114 12.8785629,21.3063731 C12.554491,21.7265285 12.2383234,22.1572539 11.9010778,22.5668394 L10.8682635,23.8220207 C10.5573653,24.1998964 10.2201198,24.5592746 9.88550898,24.9133679 C9.70634731,25.1009845 9.52982036,25.2912435 9.35856287,25.4788601 C9.04468025,25.7765941 8.74654802,26.0905986 8.46538922,26.4195855 C8.43467251,26.5247299 8.46173532,26.6383263 8.53652695,26.7181865 C8.65346491,26.9063752 8.78753052,27.0832966 8.93700599,27.2466839 C9.12477423,27.4613524 9.32632092,27.6634924 9.54035928,27.8518135 C9.70323787,28.001764 9.87964334,28.1362268 10.0673054,28.2534715 C10.1832335,28.3089637 10.2991617,28.3618135 10.4177246,28.4146632 C10.5241125,28.4702819 10.6429554,28.4975779 10.7628743,28.4939378 C11.0195998,28.5043966 11.2766959,28.4866748 11.5295808,28.4410881 C12.4886228,28.3565285 13.4450299,28.2349741 14.4014371,28.1187047 C14.9020359,28.0764249 15.4026347,28.0235751 15.9058683,28.0077202 C16.5223952,27.9892228 17.1336527,27.9839378 17.7501796,27.9918653 C18.8540467,28.0272224 19.9543134,28.1366902 21.0435928,28.3195337 L21.4098204,28.3697409 L21.6732934,28.4067358 C21.8250792,28.4194808 21.9779163,28.4087864 22.1264671,28.3750259 C22.1890637,28.3639119 22.2507207,28.3480106 22.3108982,28.3274611 L22.2371257,28.5256477 L21.6074251,30.2247668 L20.0265868,34.5267358 C19.9422754,34.7566321 19.839521,34.9865285 19.7631138,35.2217098 L19.3968862,36.513886 L18.1269461,41.006114 C18.0505389,41.2703627 17.9556886,41.5557513 17.8950898,41.8332124 L17.560479,43.3843523 C17.268024,44.7267358 16.9676647,46.0664767 16.6936527,47.4115026 C16.5065868,48.3310881 16.3300599,49.2612435 16.1482635,50.1676166 C16.1370045,50.2058554 16.1470621,50.2472129 16.1746108,50.2759585 C16.2463276,50.3933545 16.3351325,50.4993434 16.4380838,50.5904145 C16.4512575,50.5904145 16.8385629,50.9471503 16.8596407,50.8731606 C17.3233533,49.1696373 17.7949701,47.4696373 18.274491,45.7731606 L18.8936527,43.6010363 C18.9647904,43.355285 19.0253892,43.1068912 19.1097006,42.8664249 L20.4033533,39.1273057 L21.0699401,37.2009326 C21.1410778,36.9974611 21.2016766,36.7913472 21.285988,36.5931606 L24.131497,30.0133679 C24.2500599,29.7491192 24.3949701,29.4690155 24.5372455,29.1994819 L25.5542515,27.1568394 C26.1444311,25.9703627 26.7056287,24.7653886 27.3748503,23.6211917 C27.6067066,23.2301036 27.8332934,22.8284456 28.0282635,22.4241451 C28.1229843,22.2222421 28.2056844,22.0148833 28.2759281,21.8031606 C28.3278095,21.6401403 28.3518604,21.4695013 28.3470659,21.2984456 L28.3470659,21.208601 L28.3470659,21.208601 L28.3338922,21.2165285 Z" id="Shape"></path>
                </g>
            </g>
        </g>
    </g>
</svg>