<?xml version="1.0" encoding="UTF-8" standalone="no"?>
<svg width="179px" height="133px" viewBox="0 0 179 133" version="1.1" xmlns="http://www.w3.org/2000/svg" xmlns:xlink="http://www.w3.org/1999/xlink">
    <!-- Generator: sketchtool 3.7.2 (28276) - http://www.bohemiancoding.com/sketch -->
    <title>A2508107-D468-4865-A9EC-1FD1D3E34830</title>
    <desc>Created with sketchtool.</desc>
    <defs></defs>
    <g id="Tasma" stroke="none" stroke-width="1" fill="none" fill-rule="evenodd">
        <g id="company-Deskcop" transform="translate(-667.000000, -842.000000)" fill="#4A90E2">
            <g id="example" transform="translate(756.530753, 908.889866) rotate(8.000000) translate(-756.530753, -908.889866) translate(674.030753, 853.389866)">
                <g id="Слой_2" transform="translate(4.000000, 13.000000)">
                    <polygon id="Shape" points="90.3537223 24.2423747 90.052682 24 90 24.0842252 90.0270936 24.7416667 90.7375487 24.5544322 90.3537223 24.2429807 90.3537223 24.2429807"></polygon>
                    <path d="M45.7362835,30.6582835 C45.3470681,30.1483749 44.8931346,29.691907 44.3860573,29.3005185 L44.0890614,29.1010545 C43.9941316,29.010802 43.8587003,28.9779932 43.7333132,29.014873 C43.5486222,29.049264 43.3679824,29.1028502 43.1943008,29.1747695 C43.0184251,29.2602697 42.8484361,29.3575088 42.685473,29.4658352 C42.3243347,29.6972786 41.989069,29.9682896 41.641406,30.2192457 C41.4969506,30.3233139 41.3595025,30.4360545 41.2188202,30.5444589 L39.1414663,32.1564321 L38.3539691,32.7662067 C37.9874406,33.0502262 37.6360045,33.3543005 37.2813343,33.6529546 C35.8766679,34.8360078 34.5079357,36.0602546 33.1751376,37.3256952 C31.849706,38.5913163 30.5469129,39.8824126 29.2899359,41.2174126 C28.0329589,42.5524126 26.8455145,43.9275222 25.6936449,45.3438255 C23.3894888,48.1781339 21.277542,51.1650938 19.372107,54.2844771 C18.4133836,55.8520045 17.4959844,57.4448263 16.6199095,59.0629424 C16.1815128,59.876698 15.7569506,60.6976805 15.3462231,61.52589 C15.1482259,61.9233728 14.9534627,62.3219396 14.7619337,62.7215904 C14.6002299,63.0554759 14.429363,63.3882774 14.2854467,63.7297512 C13.7140935,65.0833606 13.1441777,66.4384154 12.5756992,67.7949156 L12.221029,68.6377597 C12.1865322,68.720147 12.1498794,68.8003663 12.1202337,68.8865478 L11.4259857,70.8822725 L10.6675952,73.0628267 C10.5058914,73.5273395 10.3727554,74.0016087 10.2363852,74.4720837 C9.98304938,75.3490752 9.75127403,76.233655 9.56585375,77.1279911 C9.42597744,77.7771773 9.34194055,78.4372678 9.31467395,79.1009509 C9.30389371,79.4120715 9.3383905,79.721566 9.3513268,80.0326866 C9.36798638,80.342776 9.36510589,80.6536149 9.3427026,80.9633383 C9.31757389,81.1628283 9.27757437,81.3601377 9.22304184,81.5536001 C9.19625941,81.6371274 9.1612286,81.7177487 9.11847343,81.7942579 C9.09761277,81.83119 9.07304967,81.8658793 9.04516773,81.8977841 C9.03545525,81.9080335 9.02460385,81.9171268 9.01282699,81.9248852 C8.49052394,81.0755368 8.0555409,80.1806586 7.61139465,79.2874065 L6.94840935,77.9518645 C6.7209461,77.4933139 6.51180927,77.026091 6.30536751,76.557242 C5.95554844,75.7561336 5.62297776,74.9474369 5.32220882,74.1262737 C5.00688654,73.2644589 4.72660008,72.3918036 4.46464003,71.5110179 C4.29700716,70.9483992 4.12182812,70.3836123 3.99030908,69.8112372 L3.76392386,68.8285514 L3.23137957,66.5162859 C3.19095364,66.3412128 3.16831511,66.1628876 3.13974746,65.9856464 C3.07075386,65.5567264 3.00176027,65.1279871 2.93276668,64.6994284 C2.77807011,63.7357134 2.75543159,62.7232165 2.36572559,61.8158718 C2.29712724,61.6249855 2.19649114,61.447339 2.06819073,61.2906525 C1.67857689,60.7809141 1.22448916,60.3244733 0.717425556,59.9328876 L0.420429702,59.7334235 C0.325391943,59.6433715 0.19007392,59.6105901 0.0646814926,59.647242 C0.0243410438,59.8701417 0.00270437588,60.0960568 -1.0658141e-13,60.3226014 C-1.0658141e-13,60.5394101 0.0156313607,60.7562189 0.0334187712,60.9730277 C0.06629853,61.3708718 0.1126536,61.77251 0.168710893,62.1654759 L0.252257821,62.7530277 C0.376230682,63.6249603 0.500023872,64.4970736 0.623637392,65.3693675 L0.767553713,66.3834905 C0.781029024,66.4788864 0.792348285,66.5742822 0.812291745,66.6685941 C0.948841563,67.3157682 1.08575072,67.9629424 1.22301922,68.6101166 C1.40269004,69.4668726 1.58379822,70.3236286 1.76634376,71.1803846 C1.83156427,71.4898791 1.89462872,71.7977475 1.97548059,72.1018218 C2.37578716,73.6176765 2.77609373,75.1337118 3.1764003,76.6499278 C3.26372032,76.9805612 3.35912552,77.3090265 3.45183566,77.6380338 L4.18543159,80.2288986 C4.35575952,80.8294589 4.52500942,81.4305612 4.69964945,82.0300374 C4.95621937,82.910823 5.20524312,83.7937768 5.50816811,84.6599278 C5.66070863,85.1000496 5.81810026,85.5390874 6.00783264,85.9645746 C6.31399171,86.6502323 6.80664908,87.2394101 7.32841312,87.7689656 C7.5756205,88.0120883 7.83657717,88.2406597 8.10998115,88.4535392 C8.28761466,88.5960613 8.48618131,88.7099786 8.69858274,88.7912189 C8.86264566,88.8471865 9.03835495,88.859327 9.2084885,88.8264503 C9.58579721,88.7722481 9.90920467,88.5418888 10.2062005,88.3109875 C10.5031964,88.0800861 10.79049,87.8193736 11.0891029,87.581426 C11.4507802,87.2925283 11.8016773,86.9906221 12.1493404,86.6843797 C12.8187938,86.0952019 13.4672258,85.481091 14.1215869,84.8751105 C14.775948,84.26913 15.4577987,83.6631495 16.121862,83.0528328 C17.4596909,81.822985 18.7824274,80.5757926 20.1461289,79.37413 C21.5098304,78.1724674 22.922043,77.026633 24.3418017,75.8938072 C26.6671014,74.0384662 29.0640897,72.2758109 31.5850509,70.696901 C32.8384345,69.9116919 34.1189484,69.172374 35.4265925,68.4789473 C36.0938899,68.1244649 36.7649604,67.7770289 37.4586694,67.4767487 C38.1523784,67.1764686 38.8627968,66.9114199 39.5608179,66.61656 C39.5973795,66.4904701 39.5647665,66.3543397 39.475115,66.2588255 L39.2772974,65.9601714 C38.8877845,65.4501848 38.4336873,64.9935522 37.9265322,64.6018645 L37.6295364,64.4029424 C37.5345525,64.3127903 37.3991779,64.2799953 37.2737882,64.3167609 C36.443709,64.6674491 35.5979985,64.9796537 34.7770825,65.3520228 C33.9561666,65.7243919 33.1665134,66.1590934 32.3790162,66.5900009 C30.7980927,67.457236 29.2570562,68.3954759 27.7548285,69.3933383 C24.7288127,71.4036976 21.8892951,73.6839838 19.0999058,76.0103419 C16.9767358,77.7832956 14.993709,79.7139777 12.9486958,81.5671507 C12.521798,81.9536123 12.0986732,82.3449522 11.6755484,82.736292 C11.6835817,82.4107883 11.6738649,82.0850866 11.6464418,81.7606525 C11.6202603,81.3551873 11.6265691,80.9482608 11.6653072,80.5438133 C11.7731097,79.6646537 11.9795515,78.8001288 12.1994685,77.9421081 C12.307271,77.5133687 12.4285488,77.0873395 12.5519827,76.6623943 C12.6646363,76.2726805 12.7724387,75.8780886 12.9050358,75.4948791 C13.1041111,74.9196131 13.3040847,74.3447086 13.5049567,73.7701653 L14.3237165,71.4161641 C14.431519,71.1131738 14.5527968,70.81994 14.6773087,70.5261641 L16.5174972,66.1542153 C16.6937542,65.7352323 16.898579,65.3281738 17.0958575,64.9189473 C17.4961641,64.0856789 17.909407,63.2589148 18.3355861,62.438655 C19.1834527,60.8039168 20.0927667,59.202242 21.0306483,57.619538 C21.96853,56.036834 22.9468375,54.4904455 23.9828194,52.9771202 C25.0123332,51.4740934 26.0989823,50.0100922 27.2265963,48.5796964 C28.3542103,47.1493005 29.5281794,45.751968 30.7528157,44.4028754 C31.9855371,43.0451105 33.2748549,41.7399217 34.5884282,40.461834 C35.9020015,39.1837463 37.2533057,37.9370959 38.6428798,36.7370593 C39.4206747,36.0654942 40.2033208,35.4009753 41.0145345,34.7716878 L43.116683,33.1456221 L43.8373426,32.5873395 C44.1936299,32.3114503 44.5563852,32.0382713 44.9326159,31.7900252 L44.9326159,31.7900252 L45.2296118,31.9889473 C45.3245957,32.0790994 45.4599702,32.1118944 45.58536,32.0751288 C45.7099307,31.9465416 45.8221815,31.8064427 45.9206257,31.6566878 C46.0176479,31.5135941 46.0165699,31.3482774 46.0311233,31.1813346 C45.9626515,30.9903897 45.8620036,30.8127223 45.7335884,30.6561154 L45.7335884,30.6561154 L45.7362835,30.6582835 Z M5.07588014,76.8564382 L6.11833019,78.9567731 C6.20672823,79.1350983 6.30590652,79.3069193 6.40131172,79.4814503 C6.62446287,79.8879668 6.85623822,80.289605 7.11011308,80.6776927 C7.44251084,81.1908187 7.80821666,81.68133 8.20484734,82.1460301 C8.51711417,82.5056033 8.8514139,82.845209 9.20579344,83.1628632 C9.52876639,83.4491686 9.87313005,83.7101065 10.2358462,83.9433748 C10.2599221,83.9592741 10.2841777,83.9746314 10.3086129,83.9894467 C10.1864367,84.0996578 10.0639012,84.2095076 9.94100641,84.318996 C9.70132554,84.5321913 9.45876995,84.7419538 9.21333962,84.9482835 C8.9524576,85.1650922 8.68187335,85.3753967 8.42099133,85.5943736 C8.18005277,85.7960058 7.93102902,86.0323273 7.65828873,86.2187829 C7.55048624,85.8935697 7.45238598,85.5645624 7.35428571,85.2355551 C7.18934791,84.6812473 7.02764418,84.1256749 6.86917452,83.5688377 L6.29081417,81.5264991 C5.98142103,80.4326988 5.66448172,79.3416087 5.37449303,78.2429302 L4.93088579,76.5626623 L5.07588014,76.8553541 L5.07588014,76.8553541 L5.07588014,76.8564382 Z" id="Shape"></path>
                    <path d="M73.712092,31.7118816 C73.5591598,31.5093167 73.3921894,31.3178679 73.2124274,31.1389644 L72.9170486,30.8603651 C72.7594536,30.7181278 72.588915,30.5910976 72.4076819,30.4809498 C72.2516689,30.3969488 72.0833761,30.3384036 71.9090954,30.3075028 C71.7517037,30.2852799 71.5786807,30.3183432 71.4239842,30.3459863 C71.2612462,30.3798737 71.1034772,30.4345178 70.9545043,30.5085929 C70.7733962,30.5920643 70.5966001,30.6869181 70.420343,30.7796039 C70.0710629,30.9649754 69.7390313,31.1763639 69.4048436,31.3866684 C69.2167282,31.5048292 69.032925,31.623532 68.8518168,31.7514492 L68.4141387,32.0620278 C68.340833,32.1162299 68.2632152,32.1628438 68.1936826,32.2197561 L67.4697889,32.8083919 C67.300539,32.9460655 67.1463815,33.1005418 66.9846777,33.2495978 C66.8154278,33.4084102 66.6327026,33.5596343 66.474772,33.7298292 L65.9077309,34.3401459 C65.6215153,34.6480144 65.3212853,34.9455844 65.0577083,35.2729656 L63.8379231,36.790627 C63.313464,37.4410533 62.7873879,38.0914796 62.2817942,38.7559985 L59.7112439,42.1414675 C59.5198945,42.3940497 59.3161478,42.6406697 59.1350396,42.9002982 L58.4698982,43.8537147 L56.4157218,46.7974358 C56.2604862,47.0202068 56.1020166,47.2402677 55.9510931,47.4662908 C55.7392612,47.7833737 55.5403656,48.1096709 55.339853,48.434342 L55.3091293,48.0679352 C55.2837957,47.7611508 55.2708594,47.4538243 55.255228,47.1464979 C55.2153411,46.414407 55.1752745,45.682316 55.1350283,44.9502251 C55.0940633,44.1989827 55.0477083,43.4482823 55.0272258,42.6964979 C54.9859015,41.3085604 54.9447569,39.9204423 54.9037919,38.5321435 C54.8851062,37.9135158 54.8671391,37.2947074 54.8498907,36.6757184 C54.8439616,36.4773384 54.8326423,36.2778743 54.8337203,36.0794943 C54.8380324,35.0395349 54.8425242,33.9997561 54.8471956,32.9601581 L54.8655221,28.7269669 C54.8655221,28.4480062 54.8667797,28.1690456 54.8692951,27.890085 C54.8692951,27.6499693 54.8924727,27.4076855 54.9037919,27.1681118 C55.0234527,24.6805925 55.1429338,22.1930732 55.2622352,19.7055539 C55.2703204,19.5326489 55.2870298,19.360828 55.3010441,19.188465 C55.3484772,18.5998292 55.3959103,18.0110127 55.4433434,17.4220156 L55.7845383,13.1888243 C55.8427516,12.4663091 55.9160573,11.745962 55.988285,11.0245308 C56.1117188,9.79414103 56.2297625,8.56266722 56.3591255,7.33281947 C56.4130268,6.84499974 56.4631549,6.35718001 56.4895665,5.8650241 C56.5084009,5.64875098 56.512543,5.43143782 56.5019638,5.21459779 C56.488588,5.10484721 56.4572623,4.99807496 56.4092537,4.89859901 C56.3733195,4.8118755 56.33487,4.72695873 56.293905,4.6438487 C56.2290335,4.52708674 56.1551412,4.41562943 56.0729099,4.31050522 C55.9200322,4.10789564 55.7530586,3.91644304 55.5732454,3.73758805 L55.2778666,3.45898878 C55.1202695,3.31675393 54.9497311,3.18972389 54.7684998,3.07957343 C54.6933048,3.00839662 54.586235,2.98261416 54.4871353,3.01182069 C54.4833622,3.04651009 54.4795891,3.0811995 54.4758161,3.1158889 C54.5130964,3.21924149 54.562303,3.31784037 54.6224274,3.40966478 C54.6568609,3.52376579 54.6750091,3.64220522 54.6763287,3.76143701 C54.6811798,3.92404359 54.6628534,4.08936027 54.6558462,4.25250887 C54.6375198,4.65143701 54.5960158,5.04873908 54.5545119,5.44495711 C54.5232492,5.74415321 54.4925254,6.04334931 54.4623407,6.34254541 C54.40269,6.93660144 54.3430393,7.53083815 54.2833886,8.12525552 C54.2115203,8.84072446 54.139652,9.5561934 54.0677836,10.2716623 C54.0435281,10.5134041 54.0138824,10.7551459 53.996634,10.9974297 C53.8097764,13.3143928 53.6230984,15.6313558 53.4366001,17.9483189 C53.4225858,18.1217659 53.4182737,18.2962969 53.4096495,18.470286 C53.3826988,19.0300139 53.3557482,19.5901033 53.3287976,20.1505539 C53.2569293,21.6389461 53.1850609,23.1271577 53.1131926,24.6151885 C53.0901947,25.0939746 53.0671969,25.5729413 53.044199,26.0520887 C53.0377309,26.1919303 53.0334188,26.3301459 53.0328798,26.4699876 C53.0274896,27.6606291 53.0222792,28.8510899 53.0172484,30.04137 C53.0114989,31.367517 53.0057495,32.6938446 53,34.020353 C53,34.6035686 53.0177874,35.1846161 53.0355748,35.7678317 L53.1654768,40.1544151 C53.1859593,40.844409 53.2037467,41.5338609 53.2414776,42.2227707 C53.3622164,44.4277159 53.4522314,46.6353712 53.6845458,48.8327281 C53.7222767,49.1899206 53.7449152,49.5557854 53.8171429,49.9080996 C53.8743633,50.1531443 53.9833781,50.3829285 54.1367772,50.5818329 C54.3018463,50.7967231 54.4806366,51.0005921 54.6720166,51.1921496 L54.9673954,51.4707488 C55.1248849,51.6131162 55.2954361,51.7401558 55.4767622,51.8501642 C55.5613277,51.9042592 55.6573228,51.9376738 55.7570486,51.9477281 C55.8290997,51.9481859 55.9006533,51.9357043 55.9683415,51.9108706 C56.0993215,51.8653408 56.1947267,51.7038183 56.2669544,51.5954139 C56.4432115,51.3325332 56.6286317,51.0761569 56.8021937,50.8116502 C57.0059404,50.5005296 57.1983679,50.1818207 57.3951074,49.8658219 C57.5535771,49.6105296 57.7142028,49.3563213 57.8861478,49.1097013 L60.1203543,45.9079778 L60.9256389,44.7540131 C61.0695552,44.5475028 61.2296419,44.3507488 61.3816434,44.1507427 L63.9521937,40.7652738 C64.1440822,40.5126916 64.3295025,40.2530631 64.5289371,40.0064431 L65.4484923,38.8589827 L66.7631436,37.2258706 C66.8364493,37.1348109 66.9059819,37.036163 66.9857557,36.9499815 L67.5026687,36.394409 C67.8417075,36.0296282 68.1715831,35.6567172 68.5343385,35.3157854 L69.1843875,34.7060107 C69.2382887,34.6518085 69.3035092,34.6084468 69.3628006,34.5602068 L69.811259,34.1959681 C69.9691896,34.0675089 70.1298153,33.9493481 70.2963701,33.8311873 C70.5006559,33.6859254 70.7011685,33.5303651 70.9135394,33.3975698 L71.6940294,32.9064979 C71.9171806,32.7661142 72.1511119,32.6409072 72.3850433,32.5194943 C72.5370449,32.4403591 72.6906634,32.3628499 72.845899,32.291303 C73.0014726,32.2211484 73.1660209,32.1731685 73.3347833,32.1487513 C73.4513007,32.1406403 73.5683547,32.1516239 73.6813683,32.1812726 C73.754426,32.2391891 73.8509182,32.2577867 73.9400942,32.2311386 C73.9438673,32.1964492 73.9476404,32.1617598 73.9514135,32.1270704 C73.8970367,31.9760051 73.8173725,31.8354021 73.7158651,31.7113396 L73.7158651,31.7113396 L73.712092,31.7118816 Z M54.7825052,3.76056074 L54.6423709,3.44164407 L54.6423709,3.44164407 L54.7825052,3.75314407 L54.7825052,3.75314407 L54.7825052,3.76056074 Z M54.7032434,3.51828597 L54.5852356,3.34028597 L54.7032434,3.51828597 L54.7032434,3.51828597 L54.7032434,3.51828597 Z" id="Shape"></path>
                    <path d="M70.3179104,17.5491163 L70.1610578,17.3127948 C69.8527387,16.908987 69.4932228,16.5474638 69.0916571,16.2374233 L68.8566477,16.0796949 C68.7813385,16.0083236 68.674008,15.9825277 68.5747442,16.0119421 C67.8600137,16.5409555 67.1425881,17.0650907 66.4262406,17.5924781 C65.8484192,18.0185073 65.2662858,18.4402004 64.7014008,18.8819482 L63.2493013,20.013148 L61.4436096,21.4196949 C61.0797762,21.7031724 60.725645,21.9996583 60.3688188,22.2918082 C59.9521622,22.63274 59.5279594,22.9628313 59.1355583,23.3314062 C58.688717,23.7509312 58.2321735,24.1623258 57.7944954,24.5916072 C56.9054842,25.4642625 56.0173714,26.3378212 55.1301569,27.2122832 C54.3006168,28.0318203 53.4716156,28.8513575 52.6555508,29.6849872 L52.0302964,30.322947 C51.8782949,30.4783266 51.7284494,30.636055 51.58076,30.7961322 C51.3721622,31.0221553 51.1446989,31.2666072 51.0115629,31.5473745 C50.982772,31.6471257 51.0086059,31.7547498 51.0794784,31.83031 L51.236331,32.0666315 C51.5447384,32.4703615 51.9042434,32.8318738 52.3057317,33.142003 L52.5407411,33.2997314 C52.6160503,33.3711028 52.7233808,33.3968986 52.8226447,33.3674842 C52.9062761,33.2062847 53.0088865,33.0557863 53.1282647,32.919232 C53.2657129,32.7501212 53.4139413,32.5902247 53.5637868,32.4314123 C53.6942278,32.2941001 53.8257468,32.1578719 53.9583439,32.0227278 C54.183112,31.7929105 54.4062632,31.5609251 54.6331874,31.3338179 C55.0726622,30.8926121 55.5119574,30.4512255 55.9510728,30.0096583 C56.7450382,29.2112601 57.5519398,28.4264123 58.3556073,27.6377704 C58.7927464,27.208489 59.2228784,26.7705353 59.6691807,26.3499263 L61.1676352,24.9406693 C61.3050834,24.8116681 61.45978,24.6983855 61.6058523,24.5791407 L62.5965572,23.7661078 C62.9030756,23.5153323 63.2121094,23.2685317 63.5236586,23.0257058 C64.6798403,22.1254074 65.8263197,21.2110164 66.9981328,20.3307728 C68.1214347,19.4868447 69.25929,18.6629714 70.387982,17.8271736 C70.3956832,17.8000198 70.3996726,17.7719382 70.3998403,17.7437022 C70.3984393,17.6696335 70.3700532,17.5986578 70.3200664,17.5442381 L70.3200664,17.5442381 L70.3179104,17.5491163 Z" id="Shape"></path>
                    <path d="M73.8242936,1.54939906 L73.667441,1.3130775 C73.3590337,0.909347557 72.9995286,0.547835253 72.5980403,0.237706002 L72.3630309,0.0799776218 C72.2877222,0.00861549058 72.1804918,-0.0173624498 72.0811274,0.0116828593 C71.0101097,0.607906976 69.9363969,1.19708481 68.8702303,1.80035521 L66.9087641,2.91366824 C66.7648477,2.99497153 66.6263215,3.08603121 66.4861783,3.17383877 L65.4151606,3.84377787 C65.0340788,4.08172549 64.6573091,4.32455131 64.2800004,4.56846118 C63.3259484,5.18528213 62.3745914,5.8075233 61.4097592,6.40754157 C60.2505231,7.13023747 59.091287,7.85112663 57.9320509,8.57020905 C56.8028198,9.27158542 55.6876031,9.99572671 54.5653792,10.7084855 C53.5951568,11.3236804 52.647573,11.9676025 51.6940599,12.6055623 C51.4213197,12.7882237 51.1501964,12.970343 50.8823072,13.1600507 L50.0851078,13.7242955 L49.874354,13.8738936 C49.7530762,13.959533 49.6301813,14.0614332 49.4970452,14.1389423 L49.3482778,14.0392103 C49.2731372,13.9679421 49.1661107,13.9419638 49.0669133,13.9709155 C49.0403308,14.0123144 49.0220227,14.0585242 49.0130121,14.106963 C49.0024623,14.1883529 48.998317,14.2704531 49.0006148,14.3524989 C49.0547579,14.5036726 49.1344438,14.6443141 49.2361632,14.7682298 C49.5444823,15.1720375 49.9039982,15.5335607 50.3055639,15.8436013 C50.4287915,15.9458886 50.5686521,16.0260194 50.7189864,16.0804648 C50.8293142,16.0871349 50.9400313,16.0824127 51.0494011,16.0663723 C51.1316561,16.0459063 51.2104749,16.0133992 51.2833325,15.9698924 C51.4203151,15.8855394 51.5529065,15.7941791 51.6805846,15.6961713 L51.9646442,15.4950812 L52.9127671,14.824058 C53.3601474,14.5075172 53.8231591,14.2121153 54.2780856,13.9074989 C54.7443313,13.5952943 55.205187,13.2706232 55.6795179,12.969801 L57.1192201,12.05541 C58.0732722,11.4494295 59.0224731,10.8369447 59.9819152,10.2407206 L63.7253566,7.91273645 C64.0579273,7.70568408 64.3851078,7.48995935 64.7144444,7.27748676 L66.6645914,6.01728578 C67.1173619,5.72459394 67.5776785,5.44328456 68.0353001,5.15763901 C68.2395858,5.03026386 68.4400984,4.89259029 68.6492352,4.77388749 L69.3009013,4.40422854 C70.8266658,3.53699346 72.3567424,2.6793341 73.8911312,1.83125046 C73.8988194,1.8040939 73.9028085,1.77601408 73.9029895,1.74777908 C73.9017199,1.67352249 73.8733249,1.60233138 73.8232156,1.54777299 L73.8232156,1.54777299 L73.8242936,1.54939906 Z" id="Shape"></path>
                    <path d="M87.4430985,11.72859 L87.3644026,11.5497228 C87.2549408,11.3674277 87.1286109,11.1959301 86.9870939,11.0375121 C86.8088064,10.8334437 86.617598,10.6411677 86.4146627,10.4618848 L86.1403054,10.2380297 C86.0170655,10.1357603 85.8772081,10.0556313 85.7268828,10.0011661 C85.2892047,9.97352303 85.084919,10.443456 84.8968037,10.7599968 C84.6709575,11.1394122 84.4488844,11.5226217 84.2375915,11.9117934 C84.0726537,12.2153257 83.9093329,12.5195807 83.7476292,12.8245583 L82.5618018,15.0717812 C82.3844667,15.4078348 82.2049756,15.7411783 82.0427328,16.0842782 L81.0186092,18.2523659 L80.1152243,20.1635352 C79.9626838,20.4887484 79.8349379,20.8215498 79.6969507,21.1510992 L78.4890238,24.0357398 L77.239593,21.3863367 C77.2002451,21.3034073 77.1614362,21.22102 77.1231663,21.1380906 C76.9215756,20.6649055 76.7458576,20.1803379 76.5302526,19.714199 C76.3867294,19.4173997 76.217167,19.1340644 76.0235809,18.8675608 C75.8281113,18.5889713 75.607043,18.329467 75.3632907,18.0924694 C75.1660029,17.8941924 74.9556724,17.7094879 74.7337242,17.5396071 C74.6075952,17.4469213 74.4868565,17.3770005 74.3564155,17.3000334 L74.1780023,17.2208982 C74.0784647,17.1974106 74.0403745,17.2358941 74.0637317,17.3363488 C74.0378591,17.7737605 74.0211497,18.2111722 74.0044403,18.6485839 C73.9941991,18.9109225 74.0044403,19.1754292 74.0076744,19.4377678 C74.0105491,19.8038133 74.0134239,20.1698588 74.0162986,20.5359043 C74.0162986,20.7071832 74.033008,20.8790041 74.0421712,21.0497411 C74.1046966,22.2584499 74.1553638,23.4682429 74.2426838,24.6753257 C74.3055686,25.5425608 74.3682737,26.4097959 74.4307992,27.2770309 C74.4690691,27.8087545 74.4976367,28.342646 74.5461478,28.8738275 C74.6065172,29.5322035 74.6665273,30.1905795 74.726178,30.8489554 L74.8339805,32.0273111 C74.8700943,32.4240711 74.941783,32.8132429 75.0070035,33.2062088 L75.0156277,33.260411 C75.0698198,33.4115619 75.1495012,33.5521953 75.2511761,33.6761418 C75.5594952,34.0799495 75.9190111,34.4414727 76.3205768,34.7515133 L76.5555862,34.9092417 C76.6306729,34.9806099 76.737756,35.0066019 76.8369507,34.9775364 C76.8959565,34.9082004 76.9446178,34.8306014 76.981406,34.7471771 C77.0175199,34.6593696 77.0380023,34.5639737 77.067109,34.473456 C77.0827404,34.4246741 77.0983717,34.3758921 77.1140031,34.3271101 L77.3096646,33.7162514 C77.3738071,33.5157033 77.4460348,33.3184073 77.5166454,33.1200273 L77.9634867,31.8614524 C78.0362534,31.6560261 78.1041689,31.4484317 78.1823257,31.2451735 L79.3961818,28.1014463 L80.3081908,29.9220979 C80.7394008,30.789333 81.1603695,31.6598202 81.617452,32.5118787 L83.7767358,36.5353074 C84.1389522,37.2106668 84.518417,37.8768117 84.8903355,38.5467508 C84.9998744,38.728994 85.1261991,38.9004845 85.2676442,39.0589615 C85.5192754,39.3562803 85.8031149,39.6244338 86.1138938,39.8584439 C86.2371214,39.9607312 86.376982,40.040862 86.5273163,40.0953074 L86.6308067,40.083925 C86.659738,39.9842691 86.6341123,39.8766584 86.5634302,39.8009895 C86.1031135,38.971696 85.6401018,38.1440285 85.1916435,37.3076887 L83.9626951,35.017646 L83.1137505,33.435484 C82.9520468,33.1362879 82.8086695,32.8273354 82.656668,32.5238032 L80.3540069,27.9274573 C80.186913,27.5939331 80.0198191,27.2604089 79.8527253,26.9268848 C79.928187,26.7425973 80.0063438,26.5599359 80.0828836,26.3761905 L81.0876028,23.9766594 L81.8513834,22.1532977 C82.0001508,21.7977313 82.178025,21.4535474 82.3429628,21.1050273 L83.4878252,18.6821893 C83.6635432,18.3109043 83.827403,17.9309469 84.0187524,17.5677922 C84.7501923,16.1802161 85.4654618,14.7834256 86.2249303,13.4110261 C86.3936412,13.1058677 86.5758274,12.8093817 86.7515455,12.5080175 C86.8981569,12.2559773 87.0458463,11.9622015 87.3304449,11.8500029 C87.4098594,11.8684317 87.4497463,11.8467508 87.4501056,11.7849603 C87.4498643,11.7679648 87.4476942,11.7510527 87.4436375,11.7345523 L87.4436375,11.7345523 L87.4430985,11.72859 Z M87.4431434,11.8424146 L87.2587562,11.8424146 L87.4431434,11.8424146 L87.4431434,11.8424146 L87.4431434,11.8424146 Z M76.8471919,22.8497959 L77.888025,25.0569091 L77.9796571,25.251495 C77.7990879,25.6851126 77.6406182,26.1311966 77.4713683,26.5702344 L76.544806,28.9724755 C76.4650321,29.1795279 76.3874143,29.3871223 76.3119526,29.5952587 C76.2968602,29.3686935 76.2823069,29.1415864 76.2655975,28.9155632 C76.2027127,28.0457987 76.1398279,27.1760342 76.0769432,26.3062697 C75.9896231,25.0991869 75.938956,23.8893939 75.8764305,22.681227 C75.8672673,22.5056119 75.8510969,22.3289128 75.8494799,22.1527557 C75.8466052,21.7939372 75.8437304,21.4351186 75.8408557,21.0763001 C75.8408557,20.9527191 75.8370826,20.8285961 75.8349266,20.7044731 L76.8466529,22.8497959 L76.8466529,22.8497959 L76.8471919,22.8497959 Z" id="Shape"></path>
                    <path d="M99.5289155,37.4701467 C99.2966011,36.1660419 99.0362581,34.8657313 98.8357455,33.5562063 L98.5511469,31.6986972 C98.3533294,30.407601 98.165214,29.1143367 97.9582332,27.8248665 C97.9393678,27.7067057 97.9285875,27.5869189 97.9134952,27.4687581 C97.875405,27.1637804 97.8373148,26.8589834 97.7992246,26.5543671 C97.6914221,25.6968884 97.5836196,24.8394098 97.4758171,23.9819311 C97.3622651,23.0760318 97.2496115,22.1701325 97.1378563,21.2642331 C97.1513316,21.0804877 97.1561827,20.8962003 97.1518706,20.7124548 C97.1469727,20.4076026 97.1152265,20.103786 97.0570044,19.8045681 C96.993401,19.4956156 96.9179392,19.1882892 96.8521797,18.8798787 C96.7979484,18.7287459 96.7182708,18.5881189 96.6166313,18.4641479 C96.3839757,18.1515873 96.1173056,17.866157 95.8215879,17.6131735 C95.6640455,17.4708714 95.4935005,17.3438365 95.3122212,17.2337581 L95.1343471,17.1546229 C95.0344501,17.1311353 94.9963599,17.1694382 95.0200764,17.2695316 C95.1068574,18.0700979 95.2049577,18.8701223 95.305214,19.6696046 L95.3025189,19.7015839 C95.1922194,20.5347413 94.9824686,21.351495 94.6778035,22.1341783 C94.3820386,22.9126587 94.032443,23.6693641 93.6315804,24.3987459 C93.233967,25.117945 92.7936973,25.8124449 92.313156,26.4784841 C91.8415712,27.1447402 91.321431,27.7748573 90.7570271,28.3636363 C90.4055909,28.726791 90.0315163,29.0742271 89.6515125,29.4070285 C89.4143471,29.6146229 89.153465,29.8238434 88.8634764,29.9609749 C88.8566489,29.8930415 88.8510791,29.8247467 88.846767,29.7560906 C88.8176009,29.2091842 88.8332853,28.6607911 88.8936611,28.1164743 C88.9896053,27.2638738 89.1453799,26.4161515 89.3200199,25.5765596 C89.496277,24.7282953 89.7199671,23.8962916 89.973303,23.065914 C90.2147805,22.2772721 90.4783576,21.4940504 90.8357229,20.7493123 C90.9974266,20.419221 91.1682935,20.0912977 91.3591039,19.778551 C91.4963122,19.5403637 91.6702405,19.3255813 91.8743998,19.1422173 C91.9478826,19.560146 91.9697884,19.9855973 91.9396203,20.4089225 C91.8997334,20.6799335 91.8210376,20.9509445 91.8253497,21.2290017 C91.8795419,21.3801526 91.9592232,21.5207861 92.0608981,21.6447325 C92.2936089,21.9572466 92.5602735,22.2426709 92.8559415,22.495707 C93.0134799,22.638014 93.1840253,22.7650493 93.3653082,22.8751223 L93.5431823,22.9542575 C93.64272,22.9777451 93.6809899,22.9394422 93.657992,22.8393489 L93.657992,22.7612977 C93.6817085,22.5905608 93.7178224,22.421992 93.745312,22.2517971 C93.7789012,22.0185392 93.7911701,21.7826775 93.7819649,21.5471686 C93.7666637,21.1173143 93.7107135,20.6899 93.614871,20.270707 C93.5728442,20.0817158 93.5212109,19.8950153 93.4601744,19.7113403 C93.3904758,19.4776482 93.2980374,19.2514346 93.1842001,19.035981 C93.04611,18.8045567 92.8865712,18.5867789 92.7077131,18.3855547 C92.4915758,18.1375469 92.2613946,17.9022801 92.0183162,17.6809262 C91.8804386,17.5486858 91.7320791,17.4279578 91.5747089,17.3199396 C91.3892886,17.1958166 91.2027903,17.058685 90.9817952,17.0071929 C90.8848359,16.9947861 90.7865096,16.9984481 90.6907285,17.0180334 C90.6077548,17.0298785 90.5264991,17.0517162 90.4487119,17.083076 C90.2852547,17.1471642 90.1357042,17.2425126 90.0083388,17.3638434 C89.7501518,17.5985389 89.5647315,17.9091174 89.3965597,18.2115657 C89.011463,18.9064962 88.6892741,19.6348337 88.4338834,20.3877837 C88.1595261,21.1888921 87.9180485,22.0046351 87.7159189,22.8268824 C87.5073211,23.6762307 87.3440003,24.5364195 87.2049351,25.3993184 C87.0642528,26.2708897 86.9731597,27.1511333 87.0071175,28.035171 C87.0250757,28.4253887 87.0876538,28.8122296 87.1936158,29.1880517 C87.2529314,29.3929974 87.3295708,29.5924658 87.4226961,29.7842758 C87.4944635,29.9253515 87.5785187,30.0597563 87.6738759,30.185914 C87.8588128,30.4395946 88.0649231,30.6769566 88.2899671,30.8954207 C88.5008154,31.1117547 88.7296489,31.3095886 88.9739739,31.4867666 C89.1028573,31.5819257 89.2393314,31.6662253 89.3820063,31.7388068 C89.5873701,31.8347447 89.7905777,31.9209262 90.019119,31.9306826 C90.3743282,31.9453172 90.7149841,31.7718702 91.0017387,31.5789104 C91.3122099,31.3702319 91.5871062,31.1100614 91.8598465,30.8547691 C92.1455231,30.5875523 92.4301217,30.3203355 92.6996279,30.0357739 C93.2562832,29.4388951 93.7693215,28.8023493 94.2347353,28.1311089 C94.7102769,27.4598859 95.1446302,26.760099 95.5353723,26.0356521 C95.693842,25.7400695 95.8451248,25.4396087 95.9892208,25.1342697 C96.0334198,25.4936302 96.0700727,25.8551588 96.1245129,26.2128933 L96.343891,27.6454573 L97.0079543,31.9816327 C97.2057719,33.275981 97.4644978,34.561115 97.6941171,35.8500431 C97.7482602,36.0012168 97.8279462,36.1418583 97.9296656,36.2657739 C98.1623763,36.578288 98.4290409,36.8637123 98.7247089,37.1167484 C98.882306,37.2589832 99.0528444,37.3860133 99.2340757,37.4961637 C99.3025303,37.5324792 99.5305325,37.6587703 99.5305325,37.5015839 C99.5304775,37.4877681 99.5292149,37.4739838 99.5267594,37.4603903 L99.5267594,37.4603903 L99.5289155,37.4701467 Z" id="Shape"></path>
                    <path d="M116.60377,35.1698187 C116.482492,34.5464935 116.375768,33.9199162 116.238859,33.2998431 L116.063679,32.5101172 L115.530057,30.1046239 C115.476156,29.8623401 115.422255,29.6216823 115.359729,29.3810246 C115.144124,28.5349284 114.928519,27.6888321 114.675722,26.8524923 C114.550312,26.4351354 114.4152,26.0210307 114.270385,25.6101781 C114.150185,25.2724984 114.049929,24.9283145 113.938353,24.5879247 C113.819782,24.2053404 113.661898,23.8362186 113.467257,23.4865362 C113.289467,23.1913188 113.086002,22.9125317 112.859251,22.6534485 C112.649934,22.4119292 112.425231,22.1843425 112.186563,21.9721269 C112.043279,21.8397414 111.891489,21.7169793 111.732176,21.604636 C111.505251,21.4474497 111.256228,21.2734606 110.981331,21.2149223 C110.827663,21.186293 110.66973,21.2343818 110.557667,21.3439235 C110.451691,21.4497533 110.360975,21.5699849 110.288161,21.7011159 C110.196529,21.8490879 110.109209,22.0008541 110.022428,22.1515362 C109.825713,22.5064405 109.657022,22.8763335 109.517912,23.2578029 C109.370762,23.6437225 109.234931,24.0345203 109.100717,24.4253181 C108.763834,25.4009576 108.479774,26.3982779 108.238297,27.4064387 L108.208112,27.2861099 C107.997701,26.458844 107.735395,25.6458096 107.422771,24.8518894 C107.109433,24.0554686 106.738871,23.2830346 106.314022,22.5407079 C105.925395,21.8599284 105.406326,21.2691245 104.82527,20.7482414 C104.626624,20.5715661 104.4141,20.4113284 104.189774,20.269094 C104.074985,20.1992148 103.954538,20.1391989 103.829714,20.0896848 C103.753107,20.0564499 103.673508,20.0306763 103.59201,20.0127176 C103.479412,19.9942548 103.364459,19.9959062 103.252432,20.0175958 C103.077253,20.0414448 102.912315,20.143887 102.767321,20.2398248 C102.608684,20.3504116 102.465474,20.4818434 102.341501,20.6306226 C102.083904,20.9359145 101.861829,21.269796 101.679594,21.6257749 C101.371325,22.2255733 101.114715,22.8508226 100.912579,23.4946665 L100.912579,22.3889418 C100.858387,22.2377908 100.778705,22.0971574 100.67703,21.9732109 C100.44432,21.6606969 100.177655,21.3752726 99.881987,21.1222365 C99.7244486,20.9799294 99.5539032,20.8528942 99.3726203,20.7428212 L99.1947462,20.663686 C99.0948492,20.6401984 99.056759,20.6786819 99.0804755,20.7791366 C99.0804755,21.3645203 99.0837096,21.949904 99.0680783,22.5352877 C99.0511892,23.170176 99.0350188,23.8050644 99.0195671,24.4399527 C99.013099,24.6990392 98.9963896,24.9597518 99.0007017,25.2193803 L99.014177,26.0925776 C99.0224419,26.6501375 99.0310661,27.2076973 99.0400496,27.7652572 C99.0616101,29.0297944 99.0896388,30.2943315 99.0896388,31.5594107 L99.0896388,33.2033632 C99.1439479,33.3544599 99.2236183,33.495074 99.3251872,33.619094 C99.6333808,34.0226719 99.9927118,34.3840092 100.394049,34.6939235 C100.40968,34.705306 100.88455,35.0473218 100.910962,34.9199466 C101.011218,34.4380891 101.034935,33.9443072 101.083985,33.4532353 C101.156751,32.7930526 101.265632,32.13558 101.357803,31.4781074 C101.405955,31.1362723 101.454107,30.7946178 101.502258,30.453144 C101.579337,29.9046178 101.696842,29.3604278 101.808418,28.8184058 C101.950717,28.1284119 102.110803,27.4422122 102.296224,26.7625167 C102.477332,26.0996239 102.673532,25.4394412 102.906386,24.793893 C103.136005,24.1651476 103.403894,23.5396543 103.766111,22.9759515 C103.929171,22.7149895 104.121414,22.4736631 104.339081,22.2566884 C104.511741,22.0814401 104.722169,21.9484698 104.954094,21.8680587 C105.108252,22.1571371 105.251988,22.4494675 105.385304,22.7450502 C105.704929,23.4876776 105.977144,24.2500421 106.200291,25.0275045 C106.319413,25.4416092 106.422903,25.8600502 106.523698,26.2790331 C106.585685,26.5424558 106.654139,26.8064204 106.703189,27.0725532 L107.093434,29.1907749 C107.139251,29.439563 107.171591,29.6899771 107.207166,29.9409332 C107.237351,30.1555739 107.267715,30.3703953 107.298259,30.5853973 C107.335175,30.8995309 107.396999,31.2101951 107.48314,31.5144229 C107.537352,31.6655647 107.617032,31.8061949 107.718689,31.9301537 C108.026887,32.3335458 108.386015,32.6948605 108.787012,33.0049832 C108.79887,33.0131135 109.285598,33.3589235 109.304463,33.2315483 C109.366989,32.8055191 109.42628,32.3794899 109.500125,31.9550867 C109.575587,31.5214692 109.653744,31.0878516 109.738368,30.6542341 C109.906001,29.7935033 110.115677,28.9414448 110.346375,28.0953486 C110.574377,27.2628029 110.841727,26.4454338 111.129021,25.6318589 C111.264852,25.2470234 111.405534,24.8632719 111.572628,24.4909028 C111.728576,24.1572716 111.904807,23.833614 112.100321,23.5217676 C112.135896,23.4632292 112.175783,23.3971025 112.220521,23.3326019 L112.250166,23.4274558 C112.366593,23.8019929 112.502424,24.1694838 112.627475,24.5413108 C112.901293,25.3700623 113.129835,26.2129064 113.349213,27.0579186 C113.457015,27.463351 113.564818,27.8709515 113.654294,28.277468 L113.875289,29.2737043 C114.022619,29.9385845 114.170129,30.6034647 114.317818,31.2683449 C114.486529,32.0271756 114.62775,32.7930526 114.775979,33.5573035 C114.830171,33.7084544 114.909852,33.8490879 115.011527,33.9730343 C115.244238,34.2855484 115.510903,34.5709727 115.806571,34.8240088 C115.964109,34.9663158 116.134654,35.0933511 116.315937,35.2034241 C116.380619,35.2375715 116.613472,35.3660307 116.613472,35.2110124 C116.613226,35.1964365 116.611602,35.1819171 116.608621,35.1676507 L116.608621,35.1676507 L116.60377,35.1698187 Z" id="Shape"></path>
                    <path d="M125.552047,26.7872443 C125.502176,26.5344847 125.413432,26.2910862 125.289009,26.0658131 C125.199596,25.9050336 125.098338,25.7512115 124.986084,25.6056365 C124.779273,25.3312338 124.552634,25.0725307 124.308006,24.8316292 C124.079991,24.6031003 123.836882,24.3903238 123.580339,24.1947534 C123.442504,24.0862303 123.29341,23.9930034 123.135654,23.9166962 C123.001663,23.8511409 122.861792,23.7985099 122.71792,23.7595098 C122.601386,23.7322533 122.482333,23.7173566 122.36271,23.715064 C121.867897,23.6977193 121.403807,23.9145281 120.996314,24.1768667 C120.755753,24.334419 120.531643,24.5160157 120.327399,24.7188886 L120.194263,23.8250945 C120.158149,23.5833527 120.132816,23.3399849 120.10317,23.0977011 C120.078376,22.8957076 120.053401,22.6937141 120.028247,22.4917206 C119.996985,22.2369703 119.977041,21.9805939 119.920445,21.7296377 C119.866302,21.5784641 119.786616,21.4378225 119.684897,21.3139069 C119.452307,21.0012908 119.18563,20.7158535 118.889853,20.4629325 C118.732323,20.3206154 118.561777,20.1935794 118.380486,20.0835172 C118.319039,20.0504538 118.037135,19.8943515 118.087803,20.1192906 C118.148172,20.3903016 118.168655,20.6656487 118.202612,20.9393698 C118.232797,21.1861704 118.263161,21.4329711 118.293705,21.6797717 C118.323351,21.9215135 118.353536,22.1621712 118.389111,22.402829 C118.523504,23.3087283 118.658257,24.2144469 118.79337,25.1199849 C118.860207,25.569321 118.911414,26.0219094 118.966393,26.4750397 C118.725454,26.8615013 118.501764,27.2593454 118.298557,27.6674879 C118.070995,28.1234407 117.878368,28.5961917 117.722352,29.0816231 C117.567634,29.5818023 117.441656,30.0905171 117.345044,30.6052467 C117.131768,31.6561493 117.016459,32.724769 117.000615,33.7972139 C116.990912,34.8671651 117.097098,35.9360324 117.247482,36.9951432 C117.550407,39.1269154 118.052228,41.2229142 118.609567,43.3026524 C118.749171,43.8219094 118.883385,44.3438765 119.040777,44.8577133 L119.356638,45.8875549 L120.266491,48.856751 C120.369981,49.1946113 120.473651,49.5326524 120.577501,49.870874 C120.726808,50.3586938 120.885277,50.8465135 121.045364,51.3343332 C121.153166,51.6546682 121.260969,51.9728351 121.381708,52.2877498 C121.510532,52.6275975 121.662533,52.9533527 121.823698,53.2785659 C121.93321,53.4608269 122.059537,53.6323199 122.201007,53.7907766 C122.379362,53.9946115 122.570567,54.1867029 122.773438,54.3658619 C122.931019,54.5081166 123.101559,54.635148 123.282805,54.7452772 L123.461218,54.8244124 C123.560755,54.8479 123.598846,54.8095971 123.575488,54.7095038 C123.599339,54.3161212 123.593573,53.9214881 123.55824,53.52898 C123.529672,53.206477 123.504339,52.8834319 123.47092,52.5609288 C123.385756,51.7798752 123.302748,50.9982796 123.21435,50.217226 C123.034679,48.6395809 122.855008,47.0617551 122.675338,45.4837486 C122.513634,44.0457644 122.377264,42.6034441 122.229035,41.1638338 C122.110452,40.0100498 121.99169,38.8564465 121.872748,37.7030238 L121.643668,35.4774818 C121.824776,35.2991566 122.001572,35.1170372 122.1719,34.9284136 C122.504981,34.5511273 122.81632,34.1549845 123.104391,33.7419276 C123.396896,33.3332431 123.670354,32.91155 123.924768,32.4768485 C124.179182,32.0432309 124.405028,31.5938947 124.616321,31.1375123 C124.835748,30.6699454 125.029016,30.1904115 125.195221,29.7011542 C125.355948,29.2247087 125.470217,28.7336746 125.536416,28.2349849 C125.574972,27.9607467 125.595679,27.6842693 125.598402,27.4073174 C125.599482,27.199515 125.582347,26.9920212 125.547196,26.7872443 L125.547196,26.7872443 L125.552047,26.7872443 Z M123.744199,26.2994246 C123.642326,27.1704538 123.376593,28.0002894 123.036476,28.806276 C122.683839,29.6462346 122.260619,30.4544261 121.771414,31.2220677 C121.614561,31.4676036 121.45124,31.7098874 121.28199,31.9500031 C121.24372,31.62479 121.20006,31.303913 121.159635,30.9808679 C121.045005,30.0619601 120.930375,29.1430523 120.815745,28.2241444 C121.110966,27.7458374 121.446764,27.294096 121.819386,26.8739678 C122.086637,26.5711259 122.385942,26.2985025 122.71199,26.0609349 C123.02354,25.8387059 123.387373,25.6468302 123.766299,25.5731152 C123.776545,25.8163511 123.768978,26.0600155 123.74366,26.3021347 L123.74366,26.3021347 L123.744199,26.2994246 Z M120.178093,37.3875671 C120.368185,39.2398367 120.558815,41.0921063 120.749985,42.9443759 C120.885816,44.2647413 121.041052,45.5823966 121.190897,46.9011359 C121.226831,47.2165927 121.262766,47.5322301 121.2987,47.8480482 C121.112201,47.2442358 120.918696,46.6420494 120.750524,46.0333588 C120.176476,43.9574148 119.640697,41.8706304 119.265545,39.7459045 C119.062337,38.597902 118.906563,37.4374331 118.856973,36.273712 C119.024302,36.4406878 119.202382,36.5964042 119.390057,36.7398509 L119.625066,36.8975793 C119.700207,36.9688475 119.807233,36.9948257 119.906431,36.965874 C119.978299,36.9098651 120.04873,36.8542175 120.117724,36.7989313 L120.178093,37.386483 L120.178093,37.386483 L120.178093,37.3875671 Z M119.773834,33.45574 L119.798089,33.6942297 C119.598116,33.8893576 119.392752,34.0790653 119.18631,34.2671469 C119.08282,34.3614587 118.976634,34.4514343 118.868832,34.5381578 C118.88069,34.3466434 118.896142,34.155129 118.915187,33.9636146 C119.009342,33.1116749 119.163893,32.2675863 119.377659,31.4377924 C119.419702,31.2759085 119.465698,31.1154701 119.515647,30.956477 C119.606201,31.7884806 119.687592,32.6210263 119.773295,33.453572 L119.773295,33.453572 L119.773834,33.45574 Z M118.959269,34.0118545 L118.907641,34.5087712 L118.959269,34.0118545 L118.959269,34.0118545 L118.959269,34.0118545 Z" id="Shape"></path>
                    <path d="M132.995626,42.5514816 C132.846859,41.9861528 132.704559,41.4202819 132.564416,40.8527849 C132.497579,40.5850261 132.423195,40.3194353 132.374145,40.0473403 C132.19124,39.0243643 132.008694,38.0015689 131.826508,36.9789542 L131.64001,35.93502 C131.613059,35.7843379 131.599584,35.6304037 131.57964,35.4780955 C131.445606,34.4366907 131.311033,33.3951053 131.17592,32.3533391 C131.056619,31.4275657 130.936958,30.5019729 130.816938,29.5765608 C130.763037,29.1597459 130.72315,28.740763 130.678412,28.3228641 C130.454182,26.2425839 130.229594,24.1624845 130.004646,22.0825657 C129.845637,20.6153123 129.721665,19.1442648 129.582599,17.6748434 C129.495639,16.7541288 129.408498,15.8326915 129.321178,14.9105316 C129.272128,14.3945267 129.243021,13.8768958 129.206908,13.3598068 C129.128212,12.2486619 129.049696,11.1373363 128.971359,10.02583 C128.924465,9.35372279 128.906678,8.68161561 128.884578,8.00842438 C128.859245,7.24959368 128.839301,6.49076299 128.839301,5.73193229 C128.785041,5.58081307 128.705366,5.44019091 128.603753,5.31620148 C128.37098,5.0037397 128.104322,4.71832194 127.808709,4.46522706 C127.651074,4.32303918 127.48054,4.19601252 127.299343,4.08581171 L127.120929,4.00667651 C127.021392,3.98318889 126.983302,4.02167245 127.006659,4.12212718 C127.006659,4.94220635 127.030914,5.76011743 127.06056,6.57965458 L127.10422,7.8805072 C127.111227,8.09731597 127.134944,8.31846092 127.150036,8.53635373 C127.229091,9.6605072 127.308506,10.7846607 127.38828,11.9088141 C127.422776,12.3966339 127.451883,12.8844536 127.496082,13.3722733 C127.68833,15.4044942 127.880757,17.4365344 128.073364,19.4683939 C128.20111,20.8234487 128.356346,22.1719993 128.504574,23.5227179 L128.862479,26.8398921 C128.9056,27.2377362 128.944948,27.6355803 128.996154,28.0323403 C129.250927,30.0078296 129.50606,31.9831381 129.761551,33.958266 C129.829467,34.4851113 129.931879,35.0059944 130.025129,35.5301296 C130.201925,36.520223 130.378721,37.5103164 130.555517,38.5004098 C130.604028,38.7714207 130.684341,39.0424317 130.751717,39.3134426 C130.887548,39.8554646 131.024458,40.3974865 131.166757,40.9395084 C131.2209,41.0906821 131.300586,41.2313236 131.402305,41.3552392 C131.634957,41.6678028 131.901628,41.9532334 132.197349,42.2062137 C132.354946,42.3484485 132.525484,42.4754786 132.706715,42.585629 C132.753609,42.610562 133.006945,42.7482356 133.006945,42.6018897 C133.006644,42.5835423 133.003926,42.5653161 132.99886,42.5476875 L132.99886,42.5476875 L132.995626,42.5514816 Z" id="Shape"></path>
                    <path d="M138.986316,23.023844 C138.879526,22.8267042 138.750184,22.6427945 138.600922,22.4758598 C138.418345,22.2805179 138.217439,22.1033582 138.001001,21.9468464 C137.733906,21.7464147 137.452298,21.5663238 137.158525,21.4080766 C136.810323,21.2237892 136.447028,21.044922 136.050854,21.0021022 C135.881604,20.9842155 135.703191,21.0834055 135.576523,21.1880157 C135.452994,21.2988175 135.345576,21.4265403 135.257428,21.5674311 C135.153937,21.7186552 135.063383,21.8790937 134.97229,22.0379061 C134.781677,22.3766258 134.619414,22.7307029 134.487179,23.0964749 C134.211205,23.840671 134.020394,24.6211826 133.849527,25.3957319 C133.481921,27.0602813 133.358487,28.760062 133.229663,30.4560486 C133.201634,30.8246235 133.175762,31.1937405 133.156357,31.5628574 L133.107307,31.553101 C133.004895,31.553101 132.975788,31.5988115 133.019987,31.6902326 C133.033462,31.7888805 133.064725,31.8132715 133.142343,31.9070413 C133.129407,32.293503 133.128868,32.6805066 133.149889,33.0675103 C133.193438,33.8991281 133.347713,34.7211152 133.608589,35.5114871 C133.725634,35.8687532 133.877097,36.2136708 134.06082,36.5413288 C134.26959,36.8979388 134.512199,37.2333887 134.785253,37.5429853 C135.068079,37.8715055 135.379419,38.1740632 135.715588,38.4470779 C136.337074,38.9575512 137.015161,39.3940663 137.736346,39.7479305 C138.153371,39.9505853 138.602194,40.0789601 139.062856,40.1273458 C139.429146,40.1597563 139.797932,40.1495713 140.161902,40.0969926 C140.334386,40.0753117 140.507409,40.0465846 140.677198,40.007559 C140.900302,39.9522617 141.117758,39.8760449 141.326708,39.7799098 C141.70779,39.611883 142.065155,39.3961583 142.446237,39.2281315 C142.453118,39.1244625 142.404932,39.0248718 142.319569,38.9663349 L142.115822,38.7690389 C141.728569,38.4413876 141.300378,38.1660559 140.842136,37.9500438 L140.578558,37.8470596 C140.489939,37.7936493 140.379829,37.7913812 140.289109,37.8410974 C139.816934,38.0492338 139.3771,38.3289171 138.89145,38.5045322 C138.566102,38.597304 138.2318,38.6547253 137.894277,38.6758111 C137.565205,38.7063377 137.233679,38.697057 136.906806,38.648168 C136.737086,38.471072 136.577635,38.2843081 136.429241,38.0888014 C136.118643,37.6324686 135.877054,37.1323444 135.712354,36.6047453 C135.531347,36.042404 135.406223,35.4634035 135.338819,34.8762374 C135.28718,34.3053928 135.275472,33.7316061 135.303783,33.159112 L135.328038,33.1515237 C135.440352,33.1118188 135.547351,33.0582941 135.646595,32.9921692 C135.811658,32.8836173 135.966465,32.7600601 136.109067,32.6230523 C136.2661,32.4785131 136.417921,32.3296378 136.564533,32.1764262 C136.843872,31.8758887 137.102822,31.556823 137.339633,31.2213836 C137.580588,30.8873138 137.802653,30.5398703 138.004774,30.1807015 C138.823534,28.7286248 139.42076,27.1247819 139.489753,25.4434299 C139.510746,24.9968817 139.474515,24.5494732 139.381951,24.112224 C139.301135,23.7337386 139.167196,23.3687356 138.98416,23.0281802 L138.98416,23.0281802 L138.986316,23.023844 Z M136.506859,24.8846053 C136.660079,24.3924375 136.860641,23.9164599 137.105701,23.4634238 C137.164993,23.3550194 137.22644,23.246615 137.291122,23.1430888 C137.300105,23.1987364 137.30819,23.2542033 137.315377,23.3094896 C137.391378,24.1062618 137.285731,24.9182106 137.105162,25.694386 C136.912376,26.489232 136.631783,27.2599001 136.268615,27.992017 C136.07344,28.3972022 135.857546,28.7919606 135.6218,29.1747088 C135.79105,27.72209 136.062712,26.2776016 136.509015,24.8851473 L136.509015,24.8851473 L136.506859,24.8846053 Z" id="Shape"></path>
                </g>
            </g>
        </g>
    </g>
</svg>