<?xml version="1.0" encoding="UTF-8" standalone="no"?>
<svg width="126px" height="69px" viewBox="0 0 126 69" version="1.1" xmlns="http://www.w3.org/2000/svg" xmlns:xlink="http://www.w3.org/1999/xlink">
    <!-- Generator: sketchtool 3.7.2 (28276) - http://www.bohemiancoding.com/sketch -->
    <title>99AF799C-323F-4538-8103-65CFC52C5FC5</title>
    <desc>Created with sketchtool.</desc>
    <defs></defs>
    <g id="Tasma" stroke="none" stroke-width="1" fill="none" fill-rule="evenodd">
        <g id="private-Deskcop" transform="translate(-676.000000, -876.000000)" fill="#4A90E2">
            <g id="Group-5" transform="translate(275.000000, 260.000000)">
                <g id="exmpl" transform="translate(462.647079, 656.628122) rotate(12.000000) translate(-462.647079, -656.628122) translate(402.647079, 617.128122)">
                    <g id="Слой_2">
                        <path d="M66.4825199,28.3859405 C66.4661848,28.3407605 66.4422662,28.2986996 66.4117932,28.2615678 C66.3418568,28.1678914 66.2617054,28.0823038 66.1728225,28.0063892 C66.125331,27.9635703 66.0740385,27.9251705 66.0195812,27.891666 L65.9660003,27.8680781 C65.935995,27.861645 65.9242072,27.8680781 65.9317085,27.9023878 C65.9480436,27.9475678 65.9719623,27.9896287 66.0024353,28.0267606 C66.0723716,28.1204369 66.1525231,28.2060246 66.241406,28.2819392 C66.2888975,28.324758 66.34019,28.3631578 66.3946473,28.3966623 L66.4482282,28.4202503 C66.4728754,28.4256112 66.4846632,28.4202503 66.4846632,28.3998789 C66.4852033,28.3948899 66.4852033,28.3898573 66.4846632,28.3848684 L66.4846632,28.3848684 L66.4825199,28.3859405 Z" id="Shape"></path>
                        <path d="M74.9844169,24.754646 C74.9680818,24.709466 74.9441632,24.6674051 74.9136902,24.6302732 C74.8437539,24.5365969 74.7636024,24.4510092 74.6747195,24.3750946 C74.627228,24.3322758 74.5759355,24.293876 74.5214782,24.2603715 L74.4678973,24.2367835 C74.437892,24.2303505 74.4261042,24.2367835 74.4336055,24.2710933 C74.4499406,24.3162733 74.4738593,24.3583342 74.5043323,24.395466 C74.5742686,24.4891424 74.6544201,24.57473 74.743303,24.6506446 C74.7907945,24.6934635 74.842087,24.7318633 74.8965443,24.7653678 L74.9501252,24.7889557 C74.9747724,24.7943166 74.9865602,24.7889557 74.9865602,24.7685843 C74.9871003,24.7635954 74.9871003,24.7585627 74.9865602,24.7535738 L74.9865602,24.7535738 L74.9844169,24.754646 Z" id="Shape"></path>
                        <path d="M62.8395664,29.2083562 C62.7149051,28.7424726 62.5880759,28.2787534 62.4813008,27.8090822 C62.3804878,27.3650228 62.2796748,26.9209635 62.1788618,26.4769041 C62.1300813,26.2604658 62.0704607,26.0440274 62.0325203,25.827589 L61.900813,25.0305548 L61.4758808,22.4581849 C61.4065041,22.0388356 61.3626016,21.6167808 61.3132791,21.1941849 C61.2070461,20.3042626 61.1006323,19.4143402 60.9940379,18.5244178 C60.8525745,17.3394178 60.7897019,16.1435959 60.7523035,14.9531849 C60.7031219,13.2689074 60.7393018,11.5832244 60.8607046,9.90259589 C60.9275519,9.2871895 60.9949413,8.67178311 61.0628726,8.05637671 C61.1105691,7.6235 61.1580849,7.18936073 61.2054201,6.7539589 C61.2238482,6.58567808 61.2346883,6.41415068 61.2596206,6.24695205 C61.3539295,5.66112557 61.4482385,5.07511872 61.5425474,4.48893151 C61.5916893,4.18483562 61.6406504,3.88055936 61.6894309,3.57610274 C61.7544715,3.17406849 61.797832,2.76932877 61.8455285,2.36513014 C61.8824071,2.23925841 61.8495993,2.10330357 61.7593496,2.00800685 C61.6195057,1.77796114 61.4581724,1.56164098 61.2775068,1.36193836 C61.0511505,1.10468076 60.8083675,0.8623052 60.5506775,0.636328767 L60.201626,0.351712329 C60.0451998,0.222836633 59.8677221,0.121800178 59.6769648,0.0530273973 C59.5615176,0.0530273973 59.4525745,0.0481575342 59.3609756,0.123369863 C59.3230352,0.154212329 59.2888889,0.188842466 59.2525745,0.220226027 C59.1571816,0.29760274 59.0617886,0.37389726 58.9631436,0.446945205 C58.6119241,0.706671233 58.198916,0.850061644 57.7837398,0.971808219 C57.5636856,1.03619863 57.3387534,1.0800274 57.1159892,1.13413699 C56.8807588,1.19149315 56.6471545,1.25696575 56.4113821,1.32135616 C55.9738839,1.44722016 55.5479472,1.61014045 55.1382114,1.80834247 C54.3252033,2.19306164 53.5728997,2.70006849 52.8737127,3.26334932 C52.3053317,3.72139197 51.7711269,4.22015921 51.2753388,4.75569178 C51.3067751,4.40253653 51.3394761,4.04938128 51.3734417,3.69622603 C51.3869919,3.55283562 51.395122,3.40673973 51.395122,3.26334932 C51.3263588,3.07268974 51.2251437,2.8953114 51.095935,2.7390274 C50.8003741,2.34481886 50.4616953,1.98474848 50.0861789,1.66549315 C49.8860322,1.48526252 49.6693613,1.32420962 49.4390244,1.1844589 L49.2124661,1.08435616 C49.0859982,1.05477626 49.037579,1.10311416 49.0672087,1.22936986 C49.0672087,1.56755479 49.0222222,1.90682192 48.9902439,2.24284247 C48.9669377,2.48687671 48.9436314,2.72982877 48.9235772,2.97440411 C48.8874435,3.41593836 48.8513098,3.8574726 48.8151762,4.29900685 C48.7945799,4.54845205 48.7609756,4.79897945 48.7533875,5.04896575 C48.7241192,5.79928539 48.6948509,6.54960502 48.6655827,7.29992466 C48.6540199,7.59969178 48.6422764,7.89963927 48.6303523,8.19976712 C48.6243902,8.35668493 48.6352304,8.51630822 48.6390244,8.67376712 C48.462692,9.05830594 48.3047877,9.45078082 48.1653117,9.85119178 C47.8520325,10.7526575 47.6476965,11.6909178 47.6357724,12.6491986 C47.6303415,13.1168336 47.6759584,13.5836676 47.7718157,14.0414384 C47.8655827,14.4937945 48.0059621,14.936411 48.1403794,15.3779452 C48.368383,16.1239361 48.5996387,16.8688447 48.8341463,17.6126712 C48.996748,18.1267123 49.1485095,18.644 49.3219512,19.1547945 C49.5089431,19.7077945 49.701355,20.2597123 49.8867209,20.8127123 C50.0341463,21.5480616 50.1945799,22.2801644 50.3745257,23.0073973 C50.8758808,25.0029589 51.603794,26.9270959 52.3100271,28.8561027 C52.400542,29.1033836 52.4932249,29.3495822 52.5848238,29.5957808 C52.6538031,29.7863409 52.754998,29.9636839 52.8840108,30.1201027 C53.180218,30.5146168 53.5196294,30.8748744 53.895935,31.1941781 C54.0957956,31.3745204 54.3122976,31.5355827 54.5425474,31.6752123 C54.6092141,31.7103836 54.9891599,31.9170822 54.9143631,31.6303014 C54.7582656,31.0350959 54.5712737,30.443137 54.400542,29.8495548 L53.7701897,27.6532466 C53.7159892,27.4703562 53.6547425,27.2896301 53.596748,27.108363 L53.1794038,25.7978288 C53.0222222,25.3038082 52.8704607,24.8076233 52.704065,24.3163082 C52.5474255,23.846637 52.3848238,23.3807534 52.2276423,22.915411 C52.1831978,22.6939224 52.1398374,22.4724338 52.097561,22.2509452 C52.0482385,21.9950068 51.9940379,21.7385274 51.9544715,21.4804247 L51.6081301,19.2262192 L51.4238482,18.0282329 C51.404336,17.9005342 51.3804878,17.7739178 51.3696477,17.645137 C51.2973803,16.8612694 51.2265583,16.0774018 51.1571816,15.2935342 L51.0547425,14.1610205 C51.0439024,14.0425205 51.0352304,13.926726 51.0325203,13.808226 L50.9783198,11.3191849 C50.9756098,11.1785 50.9718157,11.0383562 50.9685637,10.8982123 C51.2599091,10.279689 51.5936744,9.68198074 51.9674797,9.10934932 C52.9599901,7.58268248 54.2202888,6.24732856 55.6878049,5.16746575 C56.1649771,4.81465058 56.6695554,4.50036114 57.196748,4.22758219 C57.7479832,3.94483489 58.3279904,3.72189236 58.9268293,3.56257534 L59.0249322,3.53660274 C58.9864499,3.78117808 58.9512195,4.02629452 58.9241192,4.27303425 C58.829449,5.13878767 58.7344173,6.00580365 58.6390244,6.87408219 C58.6090334,7.15040183 58.5788618,7.42672146 58.5485095,7.7030411 C58.5127371,8.02769863 58.498103,8.35235616 58.4796748,8.6770137 C58.4522132,9.16219635 58.4319783,9.64755936 58.4189702,10.1331027 C58.3721911,12.0648468 58.4322644,13.997696 58.598916,15.9228288 C58.6157182,16.1257397 58.6455285,16.3286507 58.6693767,16.5310205 L58.8233062,17.8172055 L59.0943089,20.0816918 C59.1094851,20.2077671 59.1327913,20.3322192 59.1533875,20.4577534 C59.2195122,20.8596073 59.2859982,21.2614612 59.3528455,21.6633151 C59.4706414,22.3761187 59.5884372,23.0891027 59.7062331,23.8022671 C59.7447154,24.0343973 59.8108401,24.2654452 59.8628726,24.4948699 L60.1631436,25.8178493 C60.2666667,26.2739932 60.3913279,26.7236438 60.5116531,27.1754589 C60.5805051,27.3660776 60.6817119,27.5434414 60.8108401,27.6997808 C61.1062865,28.0940853 61.4449767,28.4541678 61.8205962,28.7733151 C62.020126,28.9532688 62.2362656,29.1139691 62.4661247,29.2532671 C62.5246612,29.2841096 62.8455285,29.4594247 62.8455285,29.2743699 C62.8449913,29.2518339 62.8415297,29.2294625 62.8352304,29.2078151 L62.8352304,29.2078151 L62.8395664,29.2083562 Z" id="Shape"></path>
                        <path d="M75.6482385,20.5297192 C75.6113821,20.274863 75.4856369,20.0281233 75.3739837,19.800863 C75.242563,19.550548 75.0923601,19.3105182 74.9246612,19.0828288 C74.6471545,18.6818767 74.304065,18.3252945 73.9691057,17.9708767 C73.500813,17.4784795 72.9745257,17.0428973 72.4406504,16.624089 C71.7165391,16.0627712 70.9290596,15.5880618 70.0943089,15.2096644 C69.6497835,14.9961432 69.1893208,14.817405 68.7170732,14.6750616 C68.2915989,14.5543973 67.8406504,14.4689041 67.398374,14.5311301 C67.004878,14.5852397 66.6569106,14.8189932 66.3653117,15.0770959 C66.0737127,15.3351986 65.8233062,15.6620205 65.5864499,15.9763973 C65.5141825,16.069105 65.4453478,16.162895 65.3799458,16.2577671 L65.3116531,16.2155616 C65.2466125,16.1814726 64.8634146,15.9731507 64.9398374,16.2610137 C64.9848222,16.4442604 65.0095409,16.6318797 65.0135501,16.8205068 C64.7581302,17.2450943 64.5404946,17.6912229 64.3631436,18.1537671 C64.0455285,18.9843493 63.9176152,19.8609247 63.895935,20.7461575 C63.8753388,21.6167808 63.9837398,22.4825342 64.1333333,23.3434178 C64.2829268,24.2043014 64.4585366,25.0565274 64.6753388,25.9028014 C64.9626016,27.0391027 65.3056911,28.1548425 65.6926829,29.2575959 C65.8813008,29.7959863 66.0780488,30.3322123 66.2888889,30.8619452 C66.39729,31.1335753 66.5105691,31.4032215 66.6287263,31.6708836 C66.7701897,31.9906712 66.9230352,32.299637 67.0818428,32.6107671 C67.2207454,32.8409227 67.3811728,33.0574262 67.5609756,33.2573767 C67.7873869,33.5145828 68.0301664,33.7569549 68.2878049,33.9829863 C68.4876655,34.1633286 68.7041675,34.3243909 68.9344173,34.4640205 L69.1609756,34.5641233 C69.2874435,34.5937032 69.3358627,34.5453653 69.3062331,34.4191096 C69.2704607,34.2026712 69.1485095,34.0057123 69.0460705,33.8114589 C68.9712737,33.670774 68.895393,33.5306301 68.8292683,33.3872397 C68.7750678,33.2557534 68.7208672,33.1231849 68.6747967,32.9873699 C68.6064261,32.7733745 68.5510411,32.5554586 68.5089431,32.3348082 C68.4504065,32.0534384 68.397832,31.7688219 68.3566396,31.4847466 L68.2281843,30.5886918 L68.0466125,29.3263151 C68.0233062,29.1639863 67.9924119,29.0016575 67.9777778,28.8393288 C67.9037037,28.127968 67.8296296,27.4167877 67.7555556,26.7057877 C67.7100271,26.2680411 67.6596206,25.8313767 67.6325203,25.3920068 C67.5848238,24.6023676 67.536224,23.8129087 67.4867209,23.0236301 C67.4794941,22.9078356 67.4731707,22.7920411 67.4677507,22.6762466 L67.5577236,22.8109795 C67.9492904,23.3206669 68.4059138,23.7770697 68.9159892,24.168589 L69.2146341,24.3671712 C69.3101455,24.4571693 69.4462717,24.4899083 69.5723577,24.4532055 C69.9579042,24.3417397 70.3430894,24.2291918 70.7279133,24.1155616 C71.0775068,24.0127534 71.4271003,23.9039932 71.7707317,23.7827877 C72.1700504,23.6371923 72.5615421,23.4710334 72.9436314,23.2849795 C73.3184888,23.1048391 73.6826012,22.903215 74.0341463,22.6811164 C74.3607987,22.4883417 74.6692061,22.2662987 74.9555556,22.0177329 C75.2369983,21.7688015 75.4560503,21.4574542 75.595122,21.1086918 C75.6408086,20.9810936 75.6637391,20.8464884 75.6628726,20.7109863 C75.6628543,20.6501525 75.6585073,20.5893969 75.6498645,20.5291781 L75.6498645,20.5291781 L75.6482385,20.5297192 Z M73.3322493,18.6694315 C73.2715447,18.9691986 73.0872629,19.2327123 72.898645,19.4664658 C72.6818428,19.7337671 72.402168,19.9453356 72.1192412,20.1379658 C71.5079024,20.5516571 70.8591952,20.9074398 70.1815718,21.2006781 C69.300271,21.5859384 68.3696477,21.8429589 67.4455285,22.1080959 C67.4379404,21.8992329 67.4308943,21.690911 67.4227642,21.4820479 C67.4081301,21.0935411 67.3907859,20.7050342 67.3799458,20.3165274 L67.3555556,19.4318356 C67.3523035,19.3052192 67.3523035,19.1769795 67.3501355,19.0481986 L67.398374,18.965411 C67.6850993,18.5104974 68.0077121,18.0791389 68.3631436,17.6754384 C68.696477,17.2966712 69.1376694,16.922774 69.6487805,16.8329521 C69.9859079,16.8145548 70.3284553,16.8870616 70.6531165,16.9714726 C70.9936234,17.0614502 71.3265331,17.1779631 71.6487805,17.3199384 C72.1272905,17.5346358 72.5905226,17.7817725 73.0352304,18.0596164 C73.1042457,18.1079543 73.1723577,18.1573744 73.2395664,18.2078767 L73.2395664,18.2078767 C73.2986291,18.3545205 73.3298735,18.5108469 73.3317073,18.6688904 L73.3317073,18.6688904 L73.3322493,18.6694315 Z" id="Shape"></path>
                        <path d="M86.6184282,25.0743836 C86.4558266,24.6864178 86.2829268,24.3065685 86.1501355,23.9072397 C86.0124661,23.4927603 85.895393,23.0717877 85.7880759,22.6486507 C85.5712737,21.798589 85.4086721,20.9382466 85.2623306,20.0741164 C85.1257453,19.2792466 84.997832,18.4832945 84.8693767,17.6868014 C84.8184282,17.3697192 84.767299,17.0524566 84.7159892,16.7350137 C84.6872629,16.5575342 84.6726287,16.3805959 84.6585366,16.2014932 C84.6511185,16.0568776 84.6285934,15.9134307 84.5913279,15.7734863 C84.5522389,15.6464365 84.4976274,15.5246755 84.4287263,15.4109521 C84.103523,14.8649863 83.6439024,14.3926096 83.1685637,13.9759658 C83.002168,13.8298699 82.7149051,13.5793425 82.501897,13.4770753 C82.4136023,13.4249487 82.3183433,13.3855973 82.2189702,13.3601986 C82.1262873,13.3445068 82.002168,13.3601986 81.9479675,13.4402808 C81.9283144,13.474445 81.9126736,13.510758 81.901355,13.5485 C81.8850949,13.5890822 81.8634146,13.6275 81.8444444,13.6664589 C81.8092141,13.7384247 81.7750678,13.8120137 81.7457995,13.8866849 L81.5772358,14.3195616 C81.4818428,14.5635959 81.3945799,14.8108767 81.298645,15.0543699 C81.0108401,15.7816027 80.7246612,16.5088356 80.403794,17.2225411 C80.2644986,17.5331301 80.1105691,17.8356027 79.9528455,18.1375342 C79.795122,18.4394658 79.6357724,18.7381507 79.4525745,19.0243904 C79.2943156,19.2701648 79.1137931,19.5009182 78.9132791,19.7137466 C78.901355,19.541137 78.8921409,19.3679863 78.8829268,19.1959178 C78.8483018,18.6159509 78.8434173,18.0345953 78.8682927,17.4541301 C78.9084011,16.634911 78.9338753,15.8135274 79.0168022,14.9970137 C79.0477734,14.6986104 79.0944504,14.4020406 79.1566396,14.1085342 C79.2168022,13.8379863 79.2899729,13.5533699 79.497561,13.3574932 C79.5343255,13.2316187 79.5015315,13.0957209 79.4113821,13.0003699 L79.2119241,12.702226 C78.8205184,12.1930554 78.3640708,11.7371919 77.8542005,11.3462397 L77.5555556,11.1476575 C77.4600442,11.0576595 77.323918,11.0249204 77.197832,11.0616233 C77.0803077,11.1787523 76.9941951,11.3235211 76.9474255,11.4825959 C76.8809049,11.6914115 76.8307092,11.9050637 76.79729,12.1216301 C76.7181572,12.5842671 76.6764228,13.0533973 76.6401084,13.5214452 C76.6146341,13.8461027 76.602168,14.175089 76.5859079,14.501911 C76.5682023,14.8604772 76.5501355,15.2190434 76.5317073,15.5776096 C76.5170732,15.8741301 76.5257453,16.1728151 76.5317073,16.4698767 C76.5387534,16.9081644 76.5636856,17.3448288 76.595664,17.7820342 C76.6218216,18.1967457 76.680905,18.6087308 76.7723577,19.0141096 C76.8133939,19.1950938 76.8701581,19.3721615 76.9420054,19.5433014 C77.0011567,19.6894482 77.0692153,19.8318424 77.1457995,19.9696849 C77.3259797,20.2640036 77.5302929,20.5429018 77.7566396,20.8035137 C78.0171427,21.1108437 78.300904,21.3977467 78.6054201,21.6616918 C78.8482963,21.87952 79.1100238,22.075441 79.3875339,22.2471575 C79.597832,22.3764795 79.8411924,22.4895685 80.0921409,22.5058014 C80.2932777,22.5172304 80.4945716,22.4862573 80.6829268,22.4148973 C80.8596206,22.3472603 81.0081301,22.2146918 81.1436314,22.0842877 C81.7170732,21.5247945 82.0791328,20.7856575 82.4379404,20.0822329 C82.6634146,19.6385342 82.8661247,19.1807671 83.0558266,18.7192123 C83.1869919,19.4437397 83.3414634,20.1623151 83.5289973,20.8743973 C83.6269196,21.245589 83.736766,21.6135342 83.8585366,21.9782329 C83.9815718,22.3429315 84.1468835,22.6908562 84.2921409,23.0458151 C84.3611202,23.2363752 84.4623151,23.4137182 84.5913279,23.570137 C84.8868615,23.9642055 85.225545,24.3240995 85.601084,24.6431301 C85.8009446,24.8234724 86.0174466,24.9845347 86.2476965,25.1241644 L86.4742547,25.2242671 C86.5768744,25.2480753 86.6281843,25.2208402 86.6281843,25.1425616 C86.6276969,25.1211997 86.6247877,25.0999616 86.6195122,25.0792534 L86.6195122,25.0792534 L86.6184282,25.0743836 Z" id="Shape"></path>
                        <path d="M98.899187,24.4878356 C98.5658537,23.1664795 98.2558266,21.8402534 97.9582656,20.5102397 C97.5685637,18.7657466 97.204336,17.0125959 96.7317073,15.2881233 C96.5902439,14.7713767 96.4336043,14.2600411 96.2737127,13.7470822 C96.1771104,13.4439844 96.0593886,13.1480041 95.9214092,12.8613082 C95.698645,12.3927192 95.3490515,12.0009658 94.9929539,11.6254452 C94.683248,11.2725085 94.3381809,10.9521346 93.9631436,10.6693288 L93.6644986,10.4707466 C93.5690417,10.3806483 93.4328584,10.3478955 93.3067751,10.3847123 C93.2641474,10.4473524 93.2297217,10.5151791 93.204336,10.5865411 C93.1885723,10.6518847 93.1773442,10.7182363 93.1707317,10.7851233 L93.1376694,10.9918219 C93.1214092,11.0946301 93.1049684,11.197258 93.0883469,11.2997055 C93.0173442,11.7325822 92.9414634,12.1573425 92.8444444,12.583726 C92.7593496,12.9592466 92.6563686,13.3298973 92.5506775,13.7005479 C92.4476965,14.062 92.3365854,14.4218288 92.203252,14.7735411 C92.1425474,14.9326233 92.0731707,15.0884589 92.0097561,15.2459178 C91.9523035,15.388226 91.8943089,15.5294521 91.8238482,15.6658082 C91.7558769,15.804077 91.6585972,15.9259341 91.5387534,16.0229315 C91.4635953,15.8786393 91.3900632,15.734347 91.3181572,15.5900548 L90.8233062,14.5944384 C90.5837398,14.112863 90.3430894,13.632911 90.1186992,13.1437603 C89.904065,12.6748105 89.6894309,12.207484 89.4747967,11.7417808 C89.3112405,11.3805962 89.1698766,11.0097998 89.0514905,10.6314521 C88.9826386,10.4408333 88.8814318,10.2634695 88.7523035,10.1071301 C88.4568015,9.71287226 88.1181169,9.35279564 87.7425474,9.03359589 C87.5425504,8.85318317 87.3258617,8.692117 87.095393,8.55256164 L86.8688347,8.4524589 C86.7423668,8.422879 86.6939476,8.47121689 86.7235772,8.5974726 C86.9371274,9.81169178 87.1539295,11.0253699 87.3577236,12.2417534 L87.4184282,12.6053699 C87.4184282,12.7211644 87.4243902,12.8369589 87.4281843,12.9527534 C87.4379404,13.2604566 87.4476965,13.5681598 87.4574526,13.875863 C87.4905149,14.9169315 87.5246612,15.9563767 87.6352304,16.9931164 C87.6890963,17.5366938 87.771413,18.0770854 87.8818428,18.6120753 C88.0071962,19.1911578 88.2150941,19.749299 88.499187,20.2694521 C88.6390309,20.4994978 88.8003641,20.7158179 88.9810298,20.9155205 C89.2074411,21.1727267 89.4502206,21.4150988 89.7078591,21.6411301 C89.9078261,21.8213431 90.1243154,21.982396 90.3544715,22.1221644 C90.4499829,22.2121625 90.5861091,22.2449015 90.7121951,22.2081986 C90.7333333,22.1135068 90.7609756,22.0198973 90.7761518,21.9235822 C90.7934487,21.7981077 90.8003375,21.6714215 90.796748,21.5448151 C90.7927742,21.3234828 90.7746706,21.1026285 90.7425474,20.8835959 C90.6883469,20.5075342 90.6195122,20.1347192 90.5615176,19.7597397 L90.4650407,19.1353151 C90.3396567,18.3258356 90.2140921,17.5163562 90.0883469,16.7068767 C90.0113821,16.2112329 89.9311653,15.7161301 89.8476965,15.2215685 C90.1599401,15.7498212 90.5152523,16.251491 90.9100271,16.7214863 C91.3132295,17.1978898 91.7686467,17.6276775 92.2677507,18.0028014 C92.4243997,18.1239336 92.5904109,18.2324921 92.7642276,18.3274589 C92.9084011,18.4042945 93.0769648,18.4897877 93.2444444,18.5033151 C93.4423817,18.5143593 93.638795,18.4630671 93.8059621,18.3566781 C93.9495935,18.2668562 94.0466125,18.1121027 94.1252033,17.967089 C94.2007684,17.8181962 94.267902,17.6651861 94.3262873,17.5087808 C94.404336,17.3161507 94.4888889,17.126226 94.5582656,16.9308904 C94.7208672,16.4823219 94.8547425,16.0207671 94.9777778,15.5592123 L95.404878,17.4714452 C95.6737127,18.6726781 95.9472448,19.8730091 96.2254743,21.0724384 C96.3338753,21.5366986 96.4552846,21.9977123 96.5718157,22.4598082 C96.6407168,22.6504044 96.741919,22.8277601 96.8710027,22.9841301 C97.1666813,23.3762766 97.5051707,23.7343426 97.8802168,24.0517123 C98.0803635,24.231943 98.2970344,24.3929959 98.5273713,24.5327466 C98.5907859,24.5662945 98.9067751,24.7394452 98.9067751,24.5516849 C98.9063075,24.5301076 98.9032135,24.5086672 98.897561,24.4878356 L98.897561,24.4878356 L98.899187,24.4878356 Z" id="Shape"></path>
                        <path d="M108.991328,21.5745753 L108.891599,21.3483973 C108.751596,21.1186273 108.590272,20.9025013 108.409756,20.7028699 C108.1834,20.4456123 107.940617,20.2032367 107.682927,19.9772603 L107.334417,19.6948082 C107.177791,19.5659322 107.000135,19.4648989 106.809214,19.3961233 C106.462331,19.4280479 106.120867,19.4929795 105.776152,19.5346438 C105.21084,19.5800959 104.631436,19.4480685 104.101355,19.2413699 C103.989702,19.0417055 103.884553,18.8377123 103.790244,18.6304726 C103.534959,18.0163288 103.379404,17.3670137 103.265583,16.7122877 C103.242818,16.5820639 103.22168,16.4512991 103.202168,16.3199932 C103.722057,16.2021849 104.23313,16.0485053 104.731707,15.8600616 C105.110503,15.7213699 105.479225,15.5566633 105.83523,15.3671233 C106.182445,15.1759194 106.509323,14.9500267 106.81084,14.6929178 C107.113108,14.4376028 107.387611,14.1512277 107.62981,13.8385274 C107.872629,13.5263151 108.088347,13.1865068 108.21355,12.8104452 C108.274182,12.6090742 108.307719,12.4005476 108.313279,12.1903493 C108.323235,11.9927054 108.302762,11.7947062 108.252575,11.6032603 C108.205737,11.4491751 108.145151,11.2995942 108.071545,11.1563151 C108.030352,11.0686575 107.984824,10.9837055 107.934959,10.9003767 C107.702147,10.5231831 107.441057,10.1641314 107.15393,9.82630137 C106.830997,9.4458107 106.481041,9.08902745 106.106775,8.75871918 C105.860634,8.53108318 105.598343,8.32149443 105.321951,8.13158904 C105.028184,7.93246575 104.736043,7.73550685 104.388076,7.64189726 C104.170154,7.58901745 103.943185,7.58513626 103.723577,7.63053425 C103.560976,7.66029452 103.405962,7.75931507 103.273171,7.85671233 C103.119073,7.97534082 102.975951,8.10753785 102.845528,8.25171233 C102.575526,8.53671452 102.328166,8.84227526 102.105691,9.16562329 C101.643425,9.84142013 101.282439,10.5809571 101.034146,11.3608493 C100.901962,11.7828331 100.818672,12.2185546 100.785908,12.6594795 C100.759195,13.085168 100.773534,13.5124345 100.828726,13.9353836 C100.83234,13.96821 100.836134,14.0012169 100.840108,14.0344041 C100.557182,14.0939247 100.272087,14.1426233 99.9880759,14.1740068 C99.7200184,14.201763 99.450397,14.2115247 99.1810298,14.203226 C99.0471545,14.1978151 98.9138211,14.1832055 98.7815718,14.1685959 L98.6905149,14.1572329 C98.6298103,14.1161096 98.5680217,14.0762489 98.5051491,14.0376507 L98.2785908,13.938089 C98.1521229,13.9081484 98.1037037,13.9564863 98.1333333,14.0831027 C98.1333333,14.1648082 98.2417344,14.3623082 98.2417344,14.3606849 C98.3858882,14.6024666 98.5534472,14.8295513 98.7420054,15.0386781 C98.9780795,15.3034787 99.2298408,15.5539142 99.495935,15.788637 C99.7074855,15.9747306 99.9344998,16.1425334 100.174526,16.2902329 C100.400542,16.4368699 100.653659,16.4736644 100.912195,16.5028836 C101.085154,16.5217273 101.259087,16.5302196 101.433062,16.5283151 C101.576902,16.883537 101.741038,17.2302276 101.924661,17.5666781 C102.152468,17.9914869 102.415156,18.3967123 102.710027,18.7781918 C103.287032,19.5288346 103.958917,20.2017748 104.708943,20.7802466 C105.138229,21.1026105 105.611022,21.3627478 106.113279,21.5529315 C106.513845,21.711735 106.934102,21.8156675 107.362602,21.8618973 C107.617886,21.8873288 107.878591,21.8532397 108.131165,21.820774 C108.364228,21.7910137 108.595122,21.747726 108.828726,21.7190479 L108.844986,21.7190479 C108.947606,21.7428562 108.998916,21.715621 108.998916,21.6373425 C108.998479,21.6157984 108.995569,21.5943754 108.990244,21.5734932 L108.990244,21.5734932 L108.991328,21.5745753 Z M108.812375,21.7260822 L108.747425,21.7331568 L108.812375,21.7260822 L108.812375,21.7260822 L108.812375,21.7260822 Z M105.982656,10.2202192 C105.892141,10.806226 105.530623,11.3181027 105.154472,11.7618014 C104.740405,12.2437767 104.249645,12.6543729 103.701897,12.9771027 C103.649142,13.0084863 103.594941,13.0391484 103.539295,13.069089 C103.712017,12.655299 103.91491,12.2547151 104.146341,11.8705616 C104.398258,11.4449287 104.693008,11.0460605 105.026016,10.6801507 C105.288347,10.3917466 105.594038,10.044363 105.985366,9.93830822 C105.991582,10.0323566 105.991582,10.1267119 105.985366,10.2207603 L105.985366,10.2207603 L105.982656,10.2202192 Z M100.474391,16.1824821 L100.466125,16.1636164 L100.474391,16.1824821 L100.474391,16.1824821 L100.474391,16.1824821 Z" id="Shape"></path>
                        <path d="M119.943089,13.9705548 C119.877703,13.7307161 119.777451,13.5017427 119.645528,13.2909384 C119.487265,13.0264253 119.312957,12.771816 119.123577,12.5285342 C118.362403,11.535548 117.486417,10.6357861 116.513821,9.84794521 C116.265041,9.64449315 116.017886,9.43508904 115.750678,9.25273973 C115.588076,9.14452055 115.425474,9.03034932 115.253659,8.93295205 C115.099638,8.85037617 114.940922,8.77684253 114.77832,8.71272603 C114.599921,8.63777119 114.412394,8.5866472 114.220596,8.56067808 C114.051037,8.54028154 113.879406,8.54465625 113.711111,8.57366438 C113.669196,8.53001598 113.626558,8.48690868 113.583198,8.44434247 L113.20813,8.09317123 C113.008269,7.91282892 112.791767,7.75176665 112.561518,7.61213699 C112.433062,7.54828767 112.302981,7.47686301 112.158266,7.4655 C112.044896,7.45766454 111.932657,7.49218611 111.84336,7.56235616 C111.700813,7.67057534 111.626558,7.86374658 111.572358,8.02607534 C111.43523,8.43784932 111.429268,8.89182877 111.405962,9.31929452 C111.387534,9.65856164 111.370732,9.99674658 111.36206,10.3354726 C111.01431,10.8810512 110.747754,11.474147 110.570732,12.0961986 C110.321409,12.9359795 110.22439,13.8277055 110.188618,14.699411 C110.152846,15.5711164 110.188618,16.4595959 110.247696,17.3345479 C110.36206,19.0996027 110.612466,20.8543767 110.939295,22.5918356 C111.073171,23.3028356 111.242818,24.0035548 111.407046,24.7080616 C111.557362,25.3512443 111.707678,25.9944269 111.857995,26.6376096 C111.899729,26.8156301 111.95664,26.9909452 112.005962,27.1662603 L112.35122,28.3977945 L112.60542,29.3041301 C112.659621,29.4913493 112.706775,29.6791096 112.75393,29.867411 C112.793925,30.0368844 112.846649,30.2031102 112.911653,30.3646781 C112.967443,30.5064679 113.032627,30.6443917 113.106775,30.7775342 C113.18103,30.9046918 113.269377,31.0231918 113.35122,31.1449384 C113.44589,31.2746229 113.547766,31.3989091 113.656369,31.5172123 C113.882834,31.7743673 114.125611,32.016736 114.383198,32.2428219 C114.533333,32.373226 114.664499,32.4765753 114.816802,32.5864178 C114.973484,32.7152141 115.151125,32.8162392 115.342005,32.8851027 C115.468473,32.9146826 115.516893,32.8663447 115.487263,32.740089 C115.490515,32.3856712 115.482385,32.0317945 115.474797,31.6773767 C115.472087,31.549137 115.455285,31.4203562 115.445528,31.2921164 C115.433604,31.1460205 115.42981,30.9972192 115.409756,30.8527466 C115.337669,30.3251781 115.268293,29.7970685 115.184282,29.2716644 C114.985908,28.0271438 114.790244,26.7885753 114.609756,25.5435137 C114.550136,25.1348059 114.490696,24.7259178 114.431436,24.3168493 C114.40813,24.1545205 114.377236,23.9959795 114.36206,23.8347329 C114.287986,23.1630525 114.214273,22.4915525 114.140921,21.8202329 C114.086721,21.3381164 114.018428,20.8554589 113.985366,20.3717192 C113.934779,19.6246461 113.884192,18.8773927 113.833604,18.1299589 C113.819512,17.9194726 113.803794,17.7089863 113.790244,17.4985 C114.04878,17.4276164 114.307859,17.3578151 114.568564,17.2950479 C114.98645,17.1944041 115.408672,17.1137808 115.827642,17.0169247 C116.233604,16.9233151 116.631978,16.8004863 117.030894,16.6825274 C117.4189,16.5713332 117.800195,16.4380045 118.1729,16.2831986 C118.511363,16.1335253 118.836471,15.9554048 119.144715,15.7507603 C119.422764,15.5705753 119.699187,15.3519726 119.853659,15.0522055 C119.940921,14.8833836 119.96206,14.682637 119.977778,14.4965 C119.982114,14.4438333 119.984282,14.391347 119.984282,14.3390411 C119.984675,14.2145098 119.970855,14.0903392 119.943089,13.9689315 L119.943089,13.9689315 L119.943089,13.9705548 Z M117.653659,12.414363 C117.638088,12.5206763 117.609886,12.6247591 117.569648,12.724411 C117.516752,12.8402259 117.444953,12.9464642 117.357182,13.0387877 C117.173442,13.2460274 116.934959,13.4034863 116.700813,13.5479589 C116.449011,13.705463 116.187212,13.8464456 115.917073,13.9700137 C115.621479,14.0984158 115.318719,14.2097053 115.010298,14.3033288 C114.576694,14.440226 114.143089,14.5663014 113.702981,14.6766849 L113.697561,14.4602466 C113.688347,14.112863 113.685095,13.7665616 113.683469,13.418637 L113.683469,12.5988767 C113.943464,12.2093925 114.25567,11.8572939 114.611382,11.5523973 C114.999458,11.2185411 115.469919,10.9539452 115.98103,10.8765685 C116.24381,10.8684191 116.505449,10.9144699 116.749593,11.0118425 C116.799819,11.0374543 116.849142,11.0645091 116.897561,11.0930068 C116.933695,11.118258 116.968022,11.1440502 117.000542,11.1703836 C117.107136,11.2598447 117.212466,11.3500274 117.316531,11.4409315 L117.330623,11.455 L117.330623,11.455 C117.391328,11.5336393 117.450949,11.6133607 117.509485,11.6941644 C117.532249,11.7324018 117.55393,11.771 117.574526,11.8099589 C117.638534,12.0026304 117.664487,12.2058699 117.650949,12.408411 L117.650949,12.408411 L117.653659,12.414363 Z" id="Shape"></path>
                        <path d="M45.9891599,20.8933356 C45.5977833,20.3842983 45.1413293,19.9286102 44.6314363,19.5378904 L44.3327913,19.3387671 C44.2373344,19.2486688 44.1011511,19.2159161 43.9750678,19.2527329 C43.7893512,19.2870651 43.6077084,19.3405598 43.4330623,19.4123562 C43.25621,19.4977103 43.0852771,19.5947833 42.9214092,19.7029247 C42.5582656,19.9339726 42.2211382,20.2045205 41.8715447,20.4550479 C41.7262873,20.5589384 41.5880759,20.6714863 41.4466125,20.7797055 L39.3566396,22.3873014 L38.5636856,22.9981986 C38.195122,23.2817329 37.8417344,23.5852877 37.4850949,23.8834315 C36.0722674,25.0644635 34.695935,26.2866187 33.3560976,27.5498973 C32.0233062,28.8133562 30.7132791,30.1022466 29.4493225,31.4349658 C28.1853659,32.7676849 26.9913279,34.1404452 25.8330623,35.5543288 C23.5161119,38.3837948 21.3924381,41.3656516 19.4764228,44.4797055 C18.5123758,46.0445548 17.5898826,47.6346553 16.7089431,49.2500068 C16.268112,50.0623721 15.8411924,50.8819521 15.4281843,51.7087466 C15.2290876,52.1055502 15.033243,52.5034361 14.8406504,52.9024041 C14.6780488,53.2357192 14.5062331,53.5679521 14.3615176,53.9088425 C13.7869919,55.2601393 13.2139115,56.612879 12.6422764,57.9670616 L12.2856369,58.8084658 C12.2509485,58.8907123 12.2140921,58.9707945 12.1842818,59.0568288 L11.4861789,61.0491438 L10.7235772,63.2259726 C10.5609756,63.6896918 10.4271003,64.1631507 10.2899729,64.6328219 C10.0352304,65.5083151 9.80216802,66.3913836 9.61571816,67.2841918 C9.47506515,67.9322688 9.39056163,68.5912316 9.36314363,69.2537808 C9.35230352,69.5643699 9.38699187,69.8733356 9.4,70.1839247 C9.41674629,70.4934844 9.4138498,70.8037919 9.39132791,71.1129863 C9.36604959,71.3121339 9.32582812,71.5091054 9.27100271,71.7022397 C9.24545536,71.7864089 9.21149975,71.8678018 9.1696477,71.9451918 C9.1486712,71.9820608 9.12397172,72.0166908 9.09593496,72.0485411 C9.08616528,72.0587695 9.07525404,72.067847 9.06341463,72.0755959 C8.53821138,71.2276986 8.10081301,70.3343493 7.65420054,69.4426233 L6.98753388,68.109363 C6.75880759,67.6515959 6.54850949,67.1851712 6.34092141,66.7171233 C5.98915989,65.9173836 5.65474255,65.1100685 5.35230352,64.2903082 C5.03523035,63.4299658 4.75338753,62.5588014 4.4899729,61.6795205 C4.32140921,61.117863 4.14525745,60.5540411 4.01300813,59.9826438 L3.78536585,59.001637 L3.2498645,56.6933219 C3.20921409,56.5185479 3.18644986,56.3405274 3.15772358,56.163589 C3.08834688,55.7354018 3.01897019,55.307395 2.9495935,54.8795685 C2.79403794,53.9175 2.77127371,52.9067329 2.37940379,52.0009384 C2.31042453,51.8103782 2.20922963,51.6330353 2.0802168,51.4766164 C1.88593703,51.2213945 1.67384676,50.9801872 1.44552846,50.7547945 C1.21968025,50.5267366 0.977878413,50.3149951 0.72195122,50.1211712 L0.423306233,49.9220479 C0.327740757,49.8321497 0.191671351,49.7994244 0.0655826558,49.8360137 C0.0250182081,50.0585325 0.00326139793,50.2840617 0.00054200542,50.5102192 C0.00054200542,50.7266575 0.0162601626,50.9430959 0.0341463415,51.1595342 C0.0672086721,51.5566986 0.113821138,51.9576507 0.170189702,52.3499452 L0.254200542,52.9364932 C0.378861789,53.8069361 0.503342367,54.6775594 0.627642276,55.548363 L0.772357724,56.5607534 C0.785907859,56.6559863 0.797289973,56.7512192 0.817344173,56.8453699 C0.954652213,57.4914384 1.09232159,58.1375068 1.2303523,58.7835753 C1.41102078,59.6388676 1.5931346,60.4941598 1.77669377,61.3494521 C1.84227642,61.6584178 1.90569106,61.9657603 1.98699187,62.2693151 C2.38952123,63.7825799 2.79205059,65.2960251 3.19457995,66.8096507 C3.28238482,67.1397192 3.37831978,67.4676233 3.47154472,67.7960685 L4.20921409,70.3825068 C4.3804878,70.9820411 4.55067751,71.5821164 4.72628726,72.1805685 C4.98428184,73.0598493 5.23468835,73.9412945 5.53929539,74.8059658 C5.69268293,75.2453356 5.85094851,75.6836233 6.04173442,76.1083836 C6.3495935,76.7928699 6.84498645,77.3810411 7.3696477,77.9096918 C7.61822775,78.1523992 7.88063344,78.38058 8.15555556,78.5930959 C8.33417541,78.7353745 8.53384464,78.8490971 8.74742547,78.9301986 C8.91239939,78.9860707 9.08908434,78.9981904 9.2601626,78.9653699 C9.6395664,78.9112603 9.96476965,78.6812945 10.2634146,78.4507877 C10.5620596,78.2202808 10.8509485,77.9600137 11.1512195,77.7224726 C11.5149051,77.4340685 11.8677507,77.1326781 12.2173442,76.8269589 C12.8905149,76.2387877 13.5425474,75.625726 14.200542,75.0207808 C14.8585366,74.4158356 15.5441734,73.8108904 16.2119241,73.2016164 C17.5571816,71.9738699 18.8872629,70.7288082 20.2585366,69.5291986 C21.6298103,68.329589 23.0460705,67.1878767 24.4715447,66.0569863 C26.8097561,64.2048151 29.2200542,62.4451712 31.7550136,60.8689589 C33.0153568,60.0850913 34.302981,59.3470365 35.6178862,58.6547945 C36.2888889,58.3009178 36.9636856,57.9540753 37.6612466,57.6543082 C38.3588076,57.3545411 39.0731707,57.0899452 39.7750678,56.795589 C39.8118323,56.6697146 39.7790382,56.5338168 39.6888889,56.4384658 L39.4899729,56.1403219 C39.0976867,55.6316746 38.6405213,55.1763679 38.1300813,54.7859589 L37.8314363,54.5873767 C37.735925,54.4973786 37.5997988,54.4646396 37.4737127,54.5013425 C36.6390244,54.8514315 35.7886179,55.1631027 34.9631436,55.5348356 C34.1376694,55.9065685 33.3436314,56.3405274 32.5517615,56.7706986 C30.9620596,57.6364521 29.4124661,58.573089 27.901897,59.5692466 C24.8590786,61.5761712 22.003794,63.8525616 19.198916,66.1749452 C17.0661247,67.9405411 15.0737127,69.8668425 13.0151762,71.7168493 C12.5859079,72.1026507 12.1604336,72.4933219 11.7349593,72.8839932 C11.743034,72.5590456 11.7332632,72.2339005 11.7056911,71.9100205 C11.6793642,71.505248 11.685708,71.0990168 11.7246612,70.6952603 C11.8330623,69.8176027 12.0406504,68.9545548 12.2617886,68.098 C12.3701897,67.6699932 12.4921409,67.2446918 12.6162602,66.8204726 C12.7295393,66.4314247 12.8379404,66.0375068 12.9712737,65.6549521 C13.1714544,65.0806689 13.3725384,64.5067466 13.5745257,63.9331849 L14.397832,61.5832055 C14.5062331,61.2807329 14.6281843,60.988 14.7533875,60.694726 L16.603794,56.3302466 C16.7810298,55.9119795 16.9869919,55.5056164 17.1853659,55.097089 C17.5878952,54.2652443 18.0034327,53.4398927 18.4319783,52.6210342 C19.2845528,50.989089 20.198916,49.3901507 21.1420054,47.8101507 C22.0850949,46.2301507 23.0688347,44.6864041 24.1105691,43.1756644 C25.1457995,41.6752055 26.2384824,40.2137055 27.3723577,38.7857534 C28.5062331,37.3578014 29.6867209,35.9628562 30.9181572,34.6160685 C32.1577236,33.2606233 33.4542005,31.9576644 34.7750678,30.6817603 C36.095935,29.4058562 37.4547425,28.1613356 38.8520325,26.9633493 C39.6341463,26.2929315 40.4211382,25.6295479 41.2368564,25.0013356 L43.3506775,23.3780479 L44.0753388,22.8207192 C44.4336043,22.5453014 44.798374,22.272589 45.1766938,22.0247671 L45.1766938,22.0247671 L45.4753388,22.2233493 C45.5708501,22.3133474 45.7069763,22.3460864 45.8330623,22.3093836 C45.9583247,22.1810161 46.0711989,22.0411565 46.1701897,21.8916575 C46.2677507,21.7488082 46.2666667,21.583774 46.2813008,21.4171164 C46.2124489,21.2264977 46.1112421,21.0491339 45.9821138,20.8927945 L45.9821138,20.8927945 L45.9891599,20.8933356 Z M5.10243902,67.014726 L6.15067751,69.1114726 C6.2395664,69.2894932 6.33929539,69.4610205 6.43523035,69.6352534 C6.6596206,70.0410753 6.89268293,70.4420274 7.14796748,70.8294521 C7.48221095,71.3417013 7.84994743,71.8313746 8.24878049,72.2952808 C8.56278021,72.6542406 8.89893628,72.9932662 9.25528455,73.3103767 C9.58005088,73.5961929 9.92632669,73.856685 10.2910569,74.0895548 C10.3152665,74.1054269 10.3396567,74.120758 10.3642276,74.1355479 C10.2413731,74.2455708 10.1181572,74.3552329 9.99457995,74.4645342 C9.7535682,74.6773653 9.50966576,74.8867694 9.26287263,75.0927466 C9.00054201,75.3091849 8.72845528,75.5191301 8.46612466,75.7377329 C8.22384824,75.9390205 7.97344173,76.1749384 7.69918699,76.3610753 C7.59078591,76.0364178 7.49214092,75.7079726 7.39349593,75.3795274 C7.22764228,74.8261667 7.06504065,74.2715434 6.90569106,73.7156575 L6.32411924,71.6768082 C6.01300813,70.5848767 5.69430894,69.4956507 5.40271003,68.3988493 L4.95663957,66.7214521 L5.10243902,67.0136438 L5.10243902,67.0136438 L5.10243902,67.014726 Z" id="Shape"></path>
                    </g>
                </g>
            </g>
        </g>
    </g>
</svg>